<svg width="24" height="24" viewBox="0 0 24 24" fill="none" xmlns="http://www.w3.org/2000/svg">
<path d="M21.5493 14.1432L22.7766 7.39319C22.8159 7.17703 22.8072 6.95487 22.7512 6.74242C22.6952 6.52998 22.5932 6.33243 22.4524 6.16375C22.3116 5.99507 22.1355 5.85937 21.9365 5.76626C21.7375 5.67314 21.5205 5.62488 21.3008 5.62488H5.57543L5.11756 3.10657C5.05486 2.76088 4.87275 2.44819 4.60302 2.22308C4.33329 1.99797 3.99307 1.87473 3.64174 1.87488H1.94946C1.75055 1.87488 1.55979 1.9539 1.41913 2.09455C1.27848 2.2352 1.19946 2.42597 1.19946 2.62488C1.19946 2.82379 1.27848 3.01456 1.41913 3.15521C1.55979 3.29586 1.75055 3.37488 1.94946 3.37488H3.64165L6.14506 17.1432C6.16744 17.265 6.20482 17.3835 6.25634 17.4962C5.88188 17.8126 5.60353 18.2275 5.45284 18.694C5.30214 19.1605 5.28512 19.6599 5.4037 20.1355C5.52228 20.6112 5.77173 21.0442 6.12377 21.3853C6.47581 21.7265 6.91637 21.9622 7.39553 22.0658C7.87469 22.1694 8.37329 22.1367 8.83482 21.9715C9.29635 21.8062 9.70237 21.515 10.0069 21.1308C10.3113 20.7466 10.5021 20.2847 10.5576 19.7977C10.6131 19.3106 10.531 18.8177 10.3207 18.3749H16.8282C16.5845 18.8888 16.5143 19.4679 16.6282 20.0251C16.7421 20.5823 17.0338 21.0875 17.4596 21.4645C17.8854 21.8416 18.4221 22.0702 18.989 22.1158C19.5559 22.1615 20.1223 22.0218 20.603 21.7178C21.0836 21.4137 21.4525 20.9618 21.6541 20.43C21.8557 19.8982 21.8791 19.3153 21.7208 18.769C21.5625 18.2227 21.231 17.7427 20.7763 17.4011C20.3216 17.0595 19.7682 16.8748 19.1995 16.8749H7.62087L7.34806 15.3749H20.0735C20.4248 15.375 20.765 15.2518 21.0348 15.0267C21.3045 14.8016 21.4866 14.4889 21.5493 14.1432ZM9.07446 19.4999C9.07446 19.7224 9.00848 19.9399 8.88487 20.1249C8.76125 20.3099 8.58555 20.4541 8.37998 20.5392C8.17442 20.6244 7.94821 20.6467 7.72999 20.6033C7.51176 20.5599 7.3113 20.4527 7.15397 20.2954C6.99663 20.138 6.88949 19.9376 6.84608 19.7194C6.80267 19.5011 6.82495 19.2749 6.9101 19.0694C6.99525 18.8638 7.13944 18.6881 7.32445 18.5645C7.50945 18.4409 7.72696 18.3749 7.94946 18.3749C8.24773 18.3752 8.53369 18.4938 8.7446 18.7047C8.95551 18.9156 9.07414 19.2016 9.07446 19.4999ZM20.3245 19.4999C20.3245 19.7224 20.2585 19.9399 20.1349 20.1249C20.0112 20.3099 19.8355 20.4541 19.63 20.5392C19.4244 20.6244 19.1982 20.6467 18.98 20.6033C18.7618 20.5599 18.5613 20.4527 18.404 20.2954C18.2466 20.138 18.1395 19.9376 18.0961 19.7194C18.0527 19.5011 18.075 19.2749 18.1601 19.0694C18.2452 18.8638 18.3894 18.6881 18.5744 18.5645C18.7595 18.4409 18.977 18.3749 19.1995 18.3749C19.4977 18.3752 19.7837 18.4938 19.9946 18.7047C20.2055 18.9156 20.3241 19.2016 20.3245 19.4999ZM5.84815 7.12488H21.3008L20.0736 13.8749H7.07534L5.84815 7.12488Z" fill="#737373"/>
</svg>
