<?xml version="1.0" standalone="no"?>
<!DOCTYPE svg PUBLIC "-//W3C//DTD SVG 20010904//EN"
 "http://www.w3.org/TR/2001/REC-SVG-20010904/DTD/svg10.dtd">
<svg version="1.0" xmlns="http://www.w3.org/2000/svg"
 width="512.000000pt" height="512.000000pt" viewBox="0 0 512.000000 512.000000"
 preserveAspectRatio="xMidYMid meet">

<g transform="translate(0.000000,512.000000) scale(0.100000,-0.100000)"
fill="#ffffff" stroke="none">
<path d="M1313 4675 c-302 -58 -539 -183 -751 -397 -193 -195 -324 -443 -379
-715 -24 -122 -24 -394 0 -516 52 -260 164 -481 350 -687 47 -52 489 -498 984
-992 609 -608 912 -903 940 -917 57 -28 149 -28 206 0 28 14 328 306 930 907
932 930 1048 1050 1127 1166 102 153 180 340 217 523 26 132 24 405 -5 535
-60 274 -183 503 -374 696 -191 193 -400 313 -667 380 -98 25 -122 27 -311 27
-220 0 -286 -9 -445 -61 -177 -58 -370 -172 -500 -295 l-71 -68 -79 71 c-184
163 -368 261 -610 324 -88 23 -124 27 -295 30 -137 2 -216 -1 -267 -11z m471
-475 c185 -49 297 -122 506 -326 163 -158 186 -174 270 -174 83 0 107 15 270
174 211 206 322 277 514 329 118 32 336 31 455 -1 254 -69 460 -230 580 -453
83 -154 112 -272 112 -444 0 -220 -66 -411 -201 -579 -27 -33 -427 -439 -889
-901 l-841 -840 -845 845 c-466 465 -870 877 -900 915 -140 182 -206 411 -184
645 12 125 32 199 89 315 130 270 370 454 665 511 100 19 298 11 399 -16z"/>
</g>
</svg>
