<?xml version="1.0" standalone="no"?>
<!DOCTYPE svg PUBLIC "-//W3C//DTD SVG 20010904//EN"
 "http://www.w3.org/TR/2001/REC-SVG-20010904/DTD/svg10.dtd">
<svg version="1.0" xmlns="http://www.w3.org/2000/svg"
 width="512.000000pt" height="512.000000pt" viewBox="0 0 512.000000 512.000000"
 preserveAspectRatio="xMidYMid meet">

<g transform="translate(0.000000,512.000000) scale(0.100000,-0.100000)"
fill="#000000" stroke="none">
<path d="M1225 4626 c-290 -49 -522 -169 -726 -376 -236 -240 -361 -548 -362
-890 -1 -275 71 -510 226 -740 38 -56 304 -329 1066 -1092 559 -560 1030
-1025 1047 -1033 41 -19 127 -19 168 0 17 8 491 475 1052 1038 795 796 1031
1039 1070 1097 99 151 167 313 206 495 17 82 17 380 -1 470 -62 316 -238 599
-489 788 -119 89 -227 146 -363 191 -163 55 -266 69 -459 63 -185 -5 -287 -26
-446 -91 -178 -73 -290 -153 -501 -360 l-153 -149 -148 145 c-81 80 -186 173
-232 207 -142 106 -324 187 -510 227 -101 22 -342 27 -445 10z m415 -405 c200
-54 282 -110 570 -397 244 -242 273 -264 350 -264 76 0 107 23 340 254 124
122 248 238 275 258 73 52 182 104 282 135 79 24 104 27 243 27 121 1 170 -3
223 -18 268 -72 462 -227 578 -461 110 -223 126 -446 48 -680 -34 -101 -73
-174 -135 -255 -23 -30 -450 -462 -948 -960 l-906 -905 -916 915 c-981 981
-992 993 -1055 1155 -49 127 -62 198 -62 340 1 156 21 244 87 380 132 274 362
441 686 499 59 11 267 -3 340 -23z"/>
</g>
</svg>
