<?xml version="1.0" standalone="no"?>
<!DOCTYPE svg PUBLIC "-//W3C//DTD SVG 20010904//EN"
 "http://www.w3.org/TR/2001/REC-SVG-20010904/DTD/svg10.dtd">
<svg version="1.0" xmlns="http://www.w3.org/2000/svg"
 width="512.000000pt" height="512.000000pt" viewBox="0 0 512.000000 512.000000"
 preserveAspectRatio="xMidYMid meet">

<g transform="translate(0.000000,512.000000) scale(0.100000,-0.100000)"
fill="#000000" stroke="none">
<path d="M1480 4419 c-355 -41 -683 -269 -857 -595 -100 -187 -137 -340 -138
-559 0 -211 36 -368 123 -541 68 -134 135 -217 396 -488 139 -143 524 -542
855 -886 331 -344 614 -631 629 -639 39 -21 113 -19 150 5 36 22 1672 1716
1745 1807 177 220 269 510 253 797 -23 439 -269 814 -651 996 -363 172 -761
141 -1101 -86 -45 -30 -132 -107 -201 -176 l-123 -123 -127 127 c-71 70 -160
149 -200 175 -154 102 -329 167 -506 186 -107 12 -139 12 -247 0z m227 -320
c108 -14 228 -57 320 -115 58 -36 123 -94 258 -232 99 -101 192 -190 207 -198
35 -18 101 -18 136 0 15 8 107 96 204 195 225 230 319 293 506 338 89 21 256
21 346 -1 469 -113 743 -613 595 -1086 -28 -90 -84 -198 -135 -264 -46 -58
-1574 -1646 -1584 -1646 -10 0 -1538 1588 -1584 1646 -79 101 -144 255 -166
394 -68 433 211 861 622 954 114 27 170 30 275 15z"/>
</g>
</svg>
