<svg width="24" height="25" viewBox="0 0 24 25" fill="none" xmlns="http://www.w3.org/2000/svg">
<path d="M11.6616 5.46316L11.9999 5.77431L12.3384 5.46321C13.3358 4.54634 14.6411 4.03739 15.9958 4.03711C16.7124 4.03769 17.4218 4.17988 18.0832 4.45552C18.7447 4.73119 19.3452 5.13489 19.8502 5.64342L19.8506 5.64384C22.013 7.81633 22.0116 11.1954 19.8534 13.3536L12.4384 20.7686L12.4158 20.7912L12.3963 20.8165C12.3365 20.8939 12.2465 20.9436 12.1461 20.973C12.098 20.9871 12.055 20.9941 12.0257 20.9975C12.0158 20.9986 12.0079 20.9993 12.0023 20.9997C11.9978 20.9992 11.9916 20.9986 11.9837 20.9975C11.9568 20.9938 11.9137 20.9857 11.8621 20.9684C11.7601 20.9342 11.6286 20.8659 11.5128 20.7236L11.4967 20.7037L11.4785 20.6856L4.14653 13.3536L4.14646 13.3535C1.98811 11.1961 1.98626 7.81611 4.14528 5.64791L4.14601 5.64718C4.65126 5.13768 5.25227 4.73314 5.91447 4.45682C6.57658 4.18053 7.28679 4.03789 8.00424 4.03711C9.35899 4.03722 10.6643 4.54618 11.6616 5.46316ZM11.9933 21.0002L11.9936 21.0002L11.9933 21.0002ZM19.1454 6.35246L19.1437 6.35074C17.4391 4.65399 14.5614 4.64899 12.8538 6.3532L12.8534 6.35356C12.5737 6.63331 12.2441 7.12965 12.0043 7.51391C12.0028 7.5162 12.0014 7.51848 12 7.52076C11.9986 7.5185 11.9972 7.51624 11.9958 7.51397C11.7559 7.12971 11.4264 6.63338 11.1465 6.35356C10.3012 5.50818 9.18494 5.03711 8.00398 5.03711C6.82316 5.03711 5.70342 5.50804 4.85236 6.35462L4.85236 6.35462L4.85052 6.35646C3.09782 8.11816 3.09585 10.888 4.85331 12.6466L4.85343 12.6467L11.6464 19.4397L12 19.7932L12.3535 19.4397L19.1465 12.6467L19.1466 12.6466C20.9044 10.8876 20.9018 8.11783 19.1454 6.35246Z" fill="#7E8389" stroke="#7E8389"/>
</svg>
