<svg width="64" height="64" viewBox="0 0 64 64" fill="none"
								xmlns="http://www.w3.org/2000/svg">
								<path fill-rule="evenodd" clip-rule="evenodd"
									d="M15.3683 41.5038C14.6126 40.3688 14.9201 38.8361 16.055 38.0804L18.0733 36.7366C19.2082 35.9809 20.7409 36.2883 21.4966 37.4233L27.117 45.8643C27.8727 46.9992 27.5653 48.5319 26.4303 49.2876L24.4121 50.6315C23.2771 51.3872 21.7444 51.0797 20.9887 49.9448L15.3683 41.5038ZM17.2778 39.9168C17.1571 39.9972 17.1244 40.1603 17.2047 40.281L22.8251 48.722C22.9055 48.8427 23.0686 48.8755 23.1893 48.7951L25.2076 47.4512C25.3283 47.3708 25.361 47.2078 25.2806 47.087L19.6602 38.646C19.5798 38.5253 19.4168 38.4926 19.296 38.573L17.2778 39.9168Z"
									fill="#2E2E32" />
								<path fill-rule="evenodd" clip-rule="evenodd"
									d="M31.6514 35.3859C31.6514 34.7766 32.1453 34.2827 32.7545 34.2827L38.2557 34.2827C39.6193 34.2827 40.7246 35.3881 40.7246 36.7516L40.7246 38.2459C40.7246 39.6095 39.6193 40.7148 38.2557 40.7148L33.2827 40.7148C32.6735 40.7148 32.1796 40.221 32.1796 39.6117C32.1796 39.0025 32.6735 38.5086 33.2827 38.5086L38.2557 38.5086C38.4008 38.5086 38.5184 38.391 38.5184 38.2459L38.5184 36.7516C38.5184 36.6066 38.4008 36.489 38.2557 36.489L32.7545 36.489C32.1453 36.489 31.6514 35.9951 31.6514 35.3859Z"
									fill="#2E2E32" />
								<path fill-rule="evenodd" clip-rule="evenodd"
									d="M24.4593 36.1943C23.6329 36.963 23.0409 37.9012 22.5963 38.6124C22.2734 39.129 21.5929 39.2861 21.0762 38.9632C20.5596 38.6403 20.4025 37.9597 20.7254 37.4431L20.741 37.4182C21.1785 36.718 21.9027 35.5592 22.9567 34.5788C24.0392 33.5719 25.5274 32.6987 27.4714 32.6987C29.1832 32.6987 30.4664 32.9848 31.4423 33.37C32.4164 33.7546 33.0394 34.2219 33.4108 34.5004L33.4156 34.5041C33.903 34.8696 34.0018 35.561 33.6363 36.0484C33.2707 36.5358 32.5793 36.6346 32.0919 36.2691C31.7584 36.0189 31.3264 35.6963 30.6321 35.4222C29.9354 35.1471 28.9296 34.905 27.4714 34.905C26.2466 34.905 25.2697 35.4404 24.4593 36.1943Z"
									fill="#2E2E32" />
								<path fill-rule="evenodd" clip-rule="evenodd"
									d="M46.4556 34.6033C47.2619 34.3154 48.1597 34.4657 48.8283 35.0005L49.398 35.4563C50.7122 36.5077 50.6123 38.537 49.2012 39.4542L40.5613 45.0701C40.1609 45.3304 39.6935 45.469 39.2158 45.469H28.8502C28.8095 45.469 28.7692 45.4785 28.7328 45.4967L26.9082 46.409C26.3633 46.6815 25.7007 46.4606 25.4282 45.9157C25.1558 45.3707 25.3766 44.7081 25.9216 44.4357L27.7461 43.5234C28.0889 43.352 28.467 43.2627 28.8502 43.2627H39.2158C39.2666 43.2627 39.3164 43.248 39.359 43.2203L47.9988 37.6044C48.1489 37.5068 48.1596 37.2909 48.0198 37.1791L47.45 36.7233C47.3789 36.6664 47.2834 36.6504 47.1976 36.6811L40.5199 39.0659C39.9462 39.2709 39.315 38.9719 39.1101 38.3981C38.9052 37.8244 39.2042 37.1931 39.7779 36.9882L46.4556 34.6033Z"
									fill="#2E2E32" />
								<path fill-rule="evenodd" clip-rule="evenodd"
									d="M30.0281 13.909C30.6208 11.3637 34.2446 11.3637 34.8373 13.909L35.4743 16.645C35.504 16.7722 35.6225 16.8583 35.7526 16.8472L38.5515 16.6076C41.1555 16.3847 42.2753 19.8312 40.0377 21.1814L37.6324 22.6328C37.5206 22.7002 37.4754 22.8395 37.5261 22.9598L38.6189 25.5478C39.6356 27.9554 36.7038 30.0854 34.7282 28.3745L32.6046 26.5355C32.5059 26.45 32.3594 26.45 32.2607 26.5355L30.1371 28.3745C28.1615 30.0854 25.2298 27.9554 26.2464 25.5478L27.3392 22.9598C27.39 22.8395 27.3447 22.7002 27.233 22.6328L24.8277 21.1814C22.5901 19.8311 23.7099 16.3847 26.3138 16.6076L29.1128 16.8472C29.2429 16.8583 29.3614 16.7722 29.391 16.645L30.0281 13.909ZM32.2642 14.2556C32.2378 14.2751 32.1995 14.3123 32.1769 14.4093L31.5398 17.1454C31.2615 18.3407 30.1474 19.1501 28.9247 19.0454L26.1257 18.8058C26.0264 18.7973 25.9792 18.8222 25.9525 18.8414C25.9161 18.8675 25.8763 18.9162 25.8535 18.9863C25.8307 19.0565 25.8343 19.1193 25.8483 19.1618C25.8587 19.193 25.8822 19.2409 25.9676 19.2924L28.3728 20.7438C29.4236 21.3778 29.8491 22.6875 29.3717 23.818L28.2789 26.406C28.2402 26.4978 28.2493 26.5504 28.2592 26.5817C28.2728 26.6244 28.3068 26.6773 28.3665 26.7207C28.4262 26.7641 28.487 26.78 28.5318 26.7798C28.5647 26.7796 28.6175 26.772 28.6928 26.7067L30.8164 24.8677C31.7442 24.0643 33.1212 24.0643 34.0489 24.8677L36.1725 26.7067C36.2479 26.772 36.3007 26.7796 36.3336 26.7798C36.3783 26.78 36.4392 26.7641 36.4989 26.7207C36.5586 26.6773 36.5926 26.6244 36.6061 26.5817C36.6161 26.5504 36.6252 26.4978 36.5864 26.406L35.4937 23.818C35.0163 22.6875 35.4418 21.3778 36.4925 20.7438L38.8978 19.2924C38.9831 19.2409 39.0067 19.193 39.017 19.1618C39.0311 19.1193 39.0347 19.0565 39.0119 18.9863C38.9891 18.9162 38.9493 18.8675 38.9129 18.8414C38.8862 18.8222 38.839 18.7973 38.7397 18.8058L35.9407 19.0454C34.7179 19.1501 33.6039 18.3407 33.3256 17.1454L32.6885 14.4093C32.6659 14.3123 32.6276 14.2751 32.6011 14.2556C32.5651 14.2291 32.5065 14.2063 32.4327 14.2063C32.3589 14.2063 32.3003 14.2291 32.2642 14.2556Z"
									fill="#2E2E32" />
							</svg>
