<svg width="64" height="64" viewBox="0 0 64 64" fill="none"
								xmlns="http://www.w3.org/2000/svg">
								<path
									d="M30.4775 28.6191H40.8025C41.085 28.6191 41.3465 28.4698 41.4904 28.2244C41.6343 27.9791 41.6397 27.6805 41.5011 27.4298L38.5465 22.0484C38.4079 21.7923 38.1358 21.6323 37.8479 21.6323H30.4772C30.0347 21.6323 29.6772 21.9898 29.6772 22.4323V27.8137C29.6772 28.2616 30.0347 28.6191 30.4772 28.6191H30.4775ZM31.2775 23.2377H37.3789L39.4535 27.0191H31.2774L31.2775 23.2377Z"
									fill="#2E2E32" stroke="#2E2E32" stroke-width="0.5" />
								<path
									d="M18.6804 28.6191H26.3125C26.755 28.6191 27.1125 28.2616 27.1125 27.8191L27.1122 22.4377C27.1122 21.9952 26.7547 21.6377 26.3122 21.6377H18.6804C18.2379 21.6377 17.8804 21.9952 17.8804 22.4377V27.8191C17.8804 28.2616 18.2375 28.6191 18.6804 28.6191H18.6804ZM19.4804 23.2377H25.5125V27.0191H19.4804V23.2377Z"
									fill="#2E2E32" stroke="#2E2E32" stroke-width="0.5" />
								<path
									d="M10.4875 32.5439H11.9114V35.2907C11.9114 37.1628 13.4368 38.6881 15.3089 38.6881H16.3275C16.706 40.8056 18.5568 42.416 20.7807 42.416C23.0046 42.416 24.8553 40.8053 25.2339 38.6881H37.6234C38.002 40.8056 39.8527 42.416 42.0766 42.416C44.3005 42.416 46.1512 40.8053 46.5298 38.6881H49.6444C50.2737 38.6881 50.7698 38.5067 51.1166 38.1549C51.7087 37.5524 51.6927 36.6827 51.6766 35.7603C51.6766 35.611 51.6712 35.451 51.6712 35.291C51.6712 35.2589 51.6712 35.2271 51.6659 35.1896L50.8127 28.2989C50.7702 27.9682 50.5302 27.7014 50.2102 27.6214L45.8263 26.5389L41.4477 18.4214C41.3091 18.1654 41.0369 18 40.7437 18H15.3092C13.437 18 11.9117 19.5254 11.9117 21.3975V23.0189L10.4878 23.0185C9.66639 23.0185 9 23.6853 9 24.5063V31.0556C9 31.8771 9.66643 32.5438 10.4878 32.5438L10.4875 32.5439ZM20.786 40.821C19.1699 40.821 17.8582 39.5088 17.8582 37.8932C17.8582 36.2771 19.1704 34.9654 20.786 34.9654C22.4021 34.9654 23.7138 36.2775 23.7138 37.8932C23.7142 39.5093 22.402 40.821 20.786 40.821ZM42.0825 40.821C40.4664 40.821 39.1546 39.5088 39.1546 37.8932C39.1546 36.2771 40.4668 34.9654 42.0825 34.9654C43.6985 34.9654 45.0103 36.2775 45.0103 37.8932C45.0103 39.5093 43.6984 40.821 42.0825 40.821ZM13.5119 31.7439V21.4024C13.5119 20.4102 14.3173 19.6049 15.3094 19.6049H40.2694L44.5894 27.6156C44.6962 27.8131 44.8826 27.957 45.1016 28.0102L49.2938 29.0448L50.0777 35.3434C50.0777 35.4927 50.083 35.642 50.083 35.7859C50.0884 36.2074 50.1045 36.9113 49.9816 37.0338C49.9709 37.0445 49.8802 37.087 49.6509 37.087H46.5416C46.163 34.9695 44.307 33.3592 42.083 33.3592C39.8591 33.3592 38.003 34.9699 37.6244 37.087L25.2449 37.0877C24.8664 34.9702 23.0103 33.3599 20.7863 33.3599C18.5623 33.3599 16.7063 34.9706 16.3277 37.0877H15.3091C14.3169 37.0877 13.5116 36.2823 13.5116 35.2902L13.5119 31.7439ZM10.6001 24.6239H11.9123V30.9439H10.6001V24.6239Z"
									fill="#2E2E32" stroke="#2E2E32" stroke-width="0.5" />
								<path
									d="M53.2449 43.416H10.0349C9.59237 43.416 9.23486 43.7735 9.23486 44.216C9.23486 44.6585 9.59237 45.016 10.0349 45.016H53.2458C53.6883 45.016 54.0458 44.6585 54.0458 44.216C54.0455 43.7735 53.6883 43.416 53.2455 43.416H53.2449Z"
									fill="#2E2E32" stroke="#2E2E32" stroke-width="0.6" />
							</svg>
