<svg width="64" height="64" viewBox="0 0 64 64" fill="none"
								xmlns="http://www.w3.org/2000/svg">
								<path
									d="M28.6238 14C26.7729 14 25.3212 15.5354 25.2511 17.3311C25.2508 17.3441 25.2508 17.3574 25.2511 17.3705V21.8728H23.0011C21.1506 21.8728 19.6216 23.4018 19.6216 25.2523V42.1273C19.6216 43.5865 20.5773 44.8283 21.8871 45.2933C21.8824 45.3626 21.8716 45.4297 21.8716 45.5V46.6292C21.8716 48.4797 23.4006 50 25.2511 50C27.1013 50 28.6238 48.4798 28.6238 46.6292V45.5H35.3764V46.6292C35.3764 48.4797 36.8966 50 38.7469 50C40.5974 50 42.1264 48.4798 42.1264 46.6292V45.5C42.1264 45.4297 42.1156 45.3626 42.1108 45.2933C43.4206 44.8283 44.3786 43.5865 44.3784 42.1273V25.2523C44.3784 23.4018 42.8473 21.8728 40.9968 21.8728H38.7468V17.3705C38.7468 15.5203 37.2266 14 35.3763 14L28.6238 14ZM28.6238 16.25H35.3764C36.019 16.25 36.4969 16.7279 36.4969 17.3705V21.8728H27.504V17.4125C27.5369 16.7252 27.9869 16.25 28.6245 16.25H28.6238ZM23.0011 24.1225H40.9966C41.6394 24.1225 42.1261 24.6091 42.1261 25.252V42.127C42.1261 42.7696 41.6394 43.2475 40.9966 43.2475H23.0011C22.3582 43.2475 21.8716 42.7696 21.8716 42.127V25.252C21.8716 24.6091 22.3582 24.1225 23.0011 24.1225ZM26.3562 27.4864C26.0589 27.4917 25.7759 27.6145 25.569 27.8277C25.3618 28.0409 25.2475 28.3274 25.2511 28.6247V38.7471C25.2511 39.1494 25.4655 39.5213 25.8141 39.7225C26.1624 39.9236 26.5918 39.9236 26.9401 39.7225C27.2886 39.5213 27.5033 39.1494 27.5033 38.7471V28.6247C27.5069 28.3201 27.3868 28.0273 27.1706 27.8128C26.9547 27.5984 26.6606 27.4806 26.3562 27.4864L26.3562 27.4864ZM31.979 27.4864C31.6819 27.4917 31.3986 27.6145 31.1917 27.8277C30.9846 28.0409 30.8703 28.3274 30.8738 28.6247V38.7471C30.867 39.05 30.9825 39.3425 31.1942 39.559C31.4059 39.7755 31.696 39.8975 31.9988 39.8975C32.3017 39.8975 32.5917 39.7755 32.8034 39.559C33.0152 39.3425 33.1306 39.05 33.1239 38.7471V28.6247C33.1274 28.3206 33.0078 28.0281 32.7921 27.8136C32.5764 27.5992 32.2831 27.4811 31.9791 27.4864L31.979 27.4864ZM37.6085 27.4864C37.3101 27.4899 37.0254 27.612 36.8167 27.8254C36.6083 28.0389 36.493 28.3264 36.4966 28.6248V38.7472C36.5053 39.1432 36.7218 39.5056 37.0661 39.7009C37.4106 39.8966 37.8325 39.8966 38.177 39.7009C38.5215 39.5056 38.7378 39.1432 38.7465 38.7472V28.6248C38.7501 28.3219 38.6313 28.0304 38.4171 27.8159C38.2029 27.6017 37.9113 27.4829 37.6085 27.4864L37.6085 27.4864ZM24.1213 45.4999H26.3713V46.6292C26.3713 47.272 25.8935 47.7499 25.2508 47.7499C24.608 47.7499 24.1213 47.2721 24.1213 46.6292V45.4999ZM37.6258 45.4999H39.8758V46.6292C39.8758 47.272 39.3892 47.7499 38.7463 47.7499C38.1037 47.7499 37.6258 47.2721 37.6258 46.6292V45.4999Z"
									fill="#2E2E32" />
							</svg>
