<svg width="64" height="64" viewBox="0 0 64 64" fill="none"
								xmlns="http://www.w3.org/2000/svg">
								<path
									d="M23.0023 14C21.7751 14 20.7523 15.0231 20.7523 16.25V18.5023C20.7523 19.7285 21.7741 20.751 23.0001 20.7523V27.4998H16.25C15.0231 27.4998 14 28.5229 14 29.7498V47.75C14 48.9769 15.0231 50 16.25 50H25.2501C25.4276 50 25.5979 49.9761 25.7556 49.9385C25.7561 49.9387 25.7569 49.9382 25.7576 49.9385C25.9585 49.9764 26.1642 50 26.3751 50H37.6252C37.8339 50 38.0373 49.9756 38.2362 49.9385C38.3956 49.9764 38.5677 50 38.748 50H47.7506C48.9776 50 50.0006 48.9769 50.0006 47.75V29.7543C50.0006 28.5274 48.9776 27.5043 47.7506 27.5043H41.0005V20.7523C42.2265 20.7511 43.2483 19.7285 43.2483 18.5023V16.25C43.2483 15.0231 42.2255 14 40.9983 14H23.0023ZM23.0023 16.25H40.998V18.5023H39.6158C39.599 18.501 39.5822 18.5003 39.5654 18.5H24.4349C24.4224 18.5005 24.4101 18.5013 24.3975 18.5023H23.0023L23.0023 16.25ZM25.2501 20.7523H38.7502V28.5438C38.7485 28.5709 38.7477 28.5981 38.748 28.6252V46.6298C38.748 46.6464 38.7422 46.66 38.7414 46.676C38.7362 46.7986 38.7115 46.9136 38.6734 47.0211C38.6478 47.0899 38.6106 47.1514 38.5722 47.2122C38.5481 47.2524 38.5242 47.2925 38.4953 47.3287C38.4361 47.4 38.369 47.4653 38.2932 47.5198C38.2756 47.5326 38.2565 47.5432 38.2382 47.555C38.1548 47.6079 38.0654 47.6531 37.968 47.6845C37.8588 47.7179 37.7488 47.7506 37.6252 47.7506H36.5002V42.1255C36.5002 40.2753 34.9754 38.7505 33.1252 38.7505H30.8752C29.0249 38.7505 27.5001 40.2753 27.5001 42.1255V47.7506H26.3751C26.2516 47.7506 26.1416 47.7179 26.0323 47.6845C25.9349 47.6536 25.8455 47.6077 25.7621 47.555C25.7415 47.5416 25.72 47.5301 25.7006 47.5155C25.6283 47.4628 25.5643 47.401 25.5073 47.333C25.4721 47.2895 25.443 47.2416 25.4148 47.1923C25.3824 47.1384 25.3498 47.0856 25.327 47.0253C25.2823 46.901 25.2501 46.7697 25.2501 46.6256L25.2501 20.7523ZM27.5046 24.1228C27.1086 24.1316 26.7462 24.3481 26.5509 24.6924C26.3552 25.0369 26.3552 25.4588 26.5509 25.8033C26.7462 26.1478 27.1086 26.3641 27.5046 26.3728H29.7544C30.1504 26.3641 30.5128 26.1478 30.7081 25.8033C30.9038 25.4588 30.9038 25.0369 30.7081 24.6924C30.5128 24.3481 30.1504 24.1316 29.7544 24.1228H27.5046ZM34.2457 24.1228C33.8497 24.1316 33.4873 24.3481 33.2919 24.6924C33.0963 25.0369 33.0963 25.4588 33.2919 25.8033C33.4873 26.1478 33.8497 26.3641 34.2457 26.3728H36.4977C36.8937 26.3641 37.2561 26.1478 37.4514 25.8033C37.6471 25.4588 37.6471 25.0369 37.4514 24.6924C37.2561 24.3481 36.8937 24.1316 36.4977 24.1228H34.2457ZM27.5046 28.6251C27.2018 28.6184 26.9092 28.7339 26.6927 28.9456C26.4763 29.1573 26.3542 29.4473 26.3542 29.7502C26.3542 30.053 26.4763 30.3431 26.6927 30.5548C26.9092 30.7665 27.2018 30.882 27.5046 30.8752H36.4976C36.8005 30.882 37.093 30.7665 37.3095 30.5548C37.526 30.3431 37.648 30.053 37.648 29.7502C37.648 29.4473 37.526 29.1573 37.3095 28.9456C37.093 28.7338 36.8005 28.6184 36.4976 28.6251H27.5046ZM16.25 29.7501H23.0001V46.6253C23.0001 47.0211 23.0832 47.396 23.211 47.7503H16.2501L16.25 29.7501ZM41.0002 29.7544H47.7503V47.7501H40.7894C40.9172 47.3957 41.0003 47.0208 41.0003 46.6251L41.0002 29.7544ZM18.3856 33.1252C17.9833 33.146 17.6227 33.3798 17.4394 33.7387C17.2563 34.0975 17.2784 34.5267 17.4976 34.8647C17.7169 35.2027 18.0998 35.3983 18.5021 35.3775H20.7521C21.1544 35.3775 21.5261 35.1628 21.7272 34.8145C21.9284 34.4659 21.9284 34.0368 21.7272 33.6882C21.5261 33.3399 21.1544 33.1252 20.7521 33.1252H18.5021C18.4632 33.1232 18.4243 33.1232 18.3856 33.1252H18.3856ZM27.3883 33.1252C26.986 33.146 26.6251 33.3798 26.442 33.7387C26.259 34.0975 26.2811 34.5267 26.5003 34.8647C26.7195 35.2027 27.1022 35.3983 27.5048 35.3775H36.4978C36.9001 35.3775 37.272 35.1628 37.4731 34.8145C37.6743 34.4659 37.6743 34.0368 37.4731 33.6882C37.272 33.3399 36.9001 33.1252 36.4978 33.1252H27.5048C27.4658 33.1232 27.4269 33.1232 27.3882 33.1252H27.3883ZM43.1403 33.1252C42.738 33.1445 42.3767 33.3768 42.1921 33.7349C42.0075 34.093 42.0281 34.5222 42.2458 34.861C42.4638 35.1997 42.8458 35.3966 43.2481 35.3775H45.5003C45.9026 35.3775 46.2745 35.1628 46.4757 34.8145C46.6768 34.4659 46.6768 34.0368 46.4757 33.6882C46.2745 33.3399 45.9026 33.1252 45.5003 33.1252H43.2481C43.2122 33.1234 43.1762 33.1234 43.1403 33.1252H43.1403ZM18.3856 37.6275C17.9901 37.6566 17.6388 37.8917 17.4612 38.2462C17.2834 38.6008 17.3053 39.023 17.5187 39.3572C17.7319 39.6917 18.1056 39.8893 18.5021 39.8775H20.7522C21.1482 39.8687 21.5103 39.6522 21.7059 39.308C21.9013 38.9634 21.9013 38.5415 21.7059 38.197C21.5103 37.8525 21.1482 37.6363 20.7522 37.6275H18.5021C18.4632 37.6255 18.4243 37.6255 18.3856 37.6275H18.3856ZM43.1403 37.6275C42.7451 37.6554 42.3933 37.8889 42.2142 38.2427C42.0354 38.5966 42.0555 39.0184 42.2675 39.3534C42.4794 39.6884 42.8518 39.8875 43.2481 39.8775H45.5003C45.8964 39.8687 46.2585 39.6522 46.4541 39.3079C46.6495 38.9634 46.6495 38.5415 46.4541 38.197C46.2585 37.8525 45.8964 37.6363 45.5003 37.6275H43.2481C43.2122 37.6257 43.1763 37.6257 43.1403 37.6275L43.1403 37.6275ZM30.8751 41.0003H33.1252C33.7678 41.0003 34.2502 41.4827 34.2502 42.1253V47.7503H29.7501V42.1253C29.7501 41.4827 30.2325 41.0003 30.8751 41.0003Z"
									fill="#2E2E32" />
							</svg>
