<svg width="64" height="64" viewBox="0 0 64 64" fill="none"
	xmlns="http://www.w3.org/2000/svg">
	<path
		d="M25.2504 25.4581C24.9572 25.2481 24.575 25.2114 24.2477 25.3625C22.2902 26.2623 20.5146 28.8054 19.6133 31.9971C18.4006 36.2908 19.0039 40.6944 21.2672 44.08C23.7081 47.7314 28.1752 50 32.9247 50C36.7271 50 40.2685 48.5298 42.6413 45.9657C47.2188 41.0216 45.81 33.8238 42.0534 29.2699C41.3372 28.4004 40.6307 27.6168 39.9472 26.8576C36.6857 23.2386 34.5314 20.8475 36.8243 15.3899C36.9753 15.0312 36.9045 14.6183 36.6437 14.3297C36.3839 14.0416 35.9788 13.9302 35.6075 14.0438C29.9326 15.785 27.6893 19.3771 28.7526 25.0278C28.8197 25.3845 28.9168 25.7695 29.0205 26.1775C29.6583 28.6973 29.722 29.9101 28.4157 30.438C28.289 30.4894 28.1683 30.5142 28.0474 30.5142C27.5973 30.5142 27.1809 30.157 26.9115 29.8577C26.1144 28.9725 25.5541 27.4112 25.6621 26.3761C25.7001 26.0189 25.5427 25.6677 25.2508 25.458L25.2504 25.4581ZM29.1664 32.2948C32.3121 31.0226 31.4664 27.6821 30.9615 25.6867C30.8659 25.31 30.7761 24.9541 30.7204 24.6576C29.9787 20.7143 31.0427 18.2438 34.2541 16.7038C32.8441 21.967 35.4704 24.8817 38.4592 28.1987C39.1288 28.9411 39.8207 29.7086 40.5088 30.5445C43.6339 34.3329 44.9284 40.5486 41.1718 44.6058C39.1768 46.7618 36.1705 47.9981 32.9252 47.9981C28.8355 47.9981 25.007 46.0707 22.9328 42.9676C20.9955 40.0703 20.4878 36.2707 21.5412 32.5425C22.0484 30.7451 22.8994 29.1507 23.8442 28.1355C24.1242 29.2557 24.6878 30.3829 25.4235 31.199C26.513 32.409 27.8947 32.8114 29.1664 32.2954L29.1664 32.2948Z"
		fill="#2E2E32" />
	<path
		d="M34.0316 45.0305C36.1045 45.0305 38.6246 44.2949 39.4819 42.2324C41.1266 38.2823 37.8583 34.6879 35.9052 32.5391C35.6959 32.3087 35.4994 32.0939 35.3261 31.8951C35.0552 31.5862 34.6224 31.4724 34.2358 31.6125C33.848 31.7511 33.5849 32.1124 33.5728 32.5234C33.5098 34.4981 32.3725 35.6845 31.1686 36.9408C29.8741 38.2906 28.4069 39.8209 28.9369 42.2422C29.3581 44.1678 31.7992 45.0302 34.0317 45.0302L34.0316 45.0305ZM32.6133 38.3266C33.5232 37.3777 34.592 36.2631 35.1647 34.7119C36.8014 36.5771 38.6321 39.063 37.6319 41.4631C37.1829 42.5443 35.4999 43.0277 34.0311 43.0277C32.2566 43.0277 31.0195 42.3981 30.892 41.8143C30.6051 40.5001 31.3221 39.6736 32.6132 38.3264L32.6133 38.3266Z"
		fill="#000000" />
</svg>
