<svg xmlns="http://www.w3.org/2000/svg" xmlns:xlink="http://www.w3.org/1999/xlink" width="60" height="60" viewBox="0 0 60 60">
    <defs>
        <path id="a" d="M0 0h60v60H0z"/>
    </defs>
    <g fill="none" fill-rule="evenodd">
        <mask id="b" fill="#fff">
            <use xlink:href="#a"/>
        </mask>
        <path fill="#979797" fill-rule="nonzero" d="M50 48.13v-27a3 3 0 0 0-3-3H29a1 1 0 0 1 0-2h18a5 5 0 0 1 5 5v29H8v-29a5 5 0 0 1 5-5h6a1 1 0 0 1 0 2h-6a3 3 0 0 0-3 3v27h40z" mask="url(#b)"/>
        <path fill="#979797" fill-rule="nonzero" d="M25 16.13a1 1 0 0 1 0 2h-2a1 1 0 0 1 0-2h2z" mask="url(#b)"/>
        <path fill="#00AC00" fill-rule="nonzero" d="M46.157 29.227c-.373-.202-.85-.136-2.79.37-1.406.368-2.323.533-3.367.533s-1.96-.165-3.367-.532c-1.94-.507-2.417-.573-2.79-.37-.423.23-.74 1.093-.822 2.902H46.98c-.083-1.809-.399-2.672-.822-2.903zM31 34.13v-1c0-3.173.538-4.926 1.888-5.66 1.05-.57 1.641-.489 4.25.192 1.253.328 2.032.468 2.862.468.83 0 1.609-.14 2.862-.468 2.609-.68 3.2-.763 4.25-.192 1.35.734 1.888 2.487 1.888 5.66v1H31zM26.157 29.227c-.373-.202-.85-.136-2.79.37-1.406.368-2.323.533-3.367.533s-1.96-.165-3.367-.532c-1.94-.507-2.417-.573-2.79-.37-.423.23-.74 1.093-.822 2.902H26.98c-.083-1.809-.399-2.672-.822-2.903zM11 34.13v-1c0-3.173.538-4.926 1.888-5.66 1.05-.57 1.641-.489 4.25.192 1.253.328 2.032.468 2.862.468.83 0 1.609-.14 2.862-.468 2.609-.68 3.2-.763 4.25-.192 1.35.734 1.888 2.487 1.888 5.66v1H11z" mask="url(#b)"/>
        <path fill="#00AC00" fill-rule="nonzero" d="M47 34.13H13a3.001 3.001 0 0 0-2.83 2h39.66a3.001 3.001 0 0 0-2.83-2zm-34-2h34a5 5 0 0 1 5 5v1H8v-1a5 5 0 0 1 5-5z" mask="url(#b)"/>
        <path fill="#FFF" fill-rule="nonzero" d="M50 37.13H10a4 4 0 0 0-4 4v12h4a2 2 0 0 0 2-2v-2h36v2a2 2 0 0 0 2 2h4v-12a4 4 0 0 0-4-4z" mask="url(#b)"/>
        <path fill="#979797" fill-rule="nonzero" d="M13 51.13a3 3 0 0 1-3 3H5v-13a5 5 0 0 1 5-5h40a5 5 0 0 1 5 5v13h-5a3 3 0 0 1-3-3v-1H13v1zm40-10a3 3 0 0 0-3-3H10a3 3 0 0 0-3 3v11h3a1 1 0 0 0 1-1v-3h38v3a1 1 0 0 0 1 1h3v-11z" mask="url(#b)"/>
    </g>
</svg>
