<svg version="1.1" xmlns="http://www.w3.org/2000/svg" xmlns:xlink="http://www.w3.org/1999/xlink" width="512.000000pt" height="512.000000pt" viewBox="0,0,256,256"><g fill="#edc830" fill-rule="nonzero" stroke="none" stroke-width="1" stroke-linecap="butt" stroke-linejoin="miter" stroke-miterlimit="10" stroke-dasharray="" stroke-dashoffset="0" font-family="none" font-weight="none" font-size="none" text-anchor="none" style="mix-blend-mode: normal"><g transform="translate(-0.39219,0.20753) scale(0.5,0.5)"><g transform="translate(0,512) scale(0.1,-0.1)"><path d="M2255,5100c-752,-134 -1333,-724 -1461,-1485c-26,-152 -24,-445 4,-595c30,-163 91,-346 164,-491c40,-78 333,-543 797,-1264c404,-627 751,-1166 771,-1198l37,-58l773,1202c425,661 794,1243 820,1293c138,263 200,523 200,831c0,482 -177,913 -518,1258c-271,275 -609,450 -992,513c-126,20 -467,17 -595,-6zM2761,4816c284,-38 524,-142 751,-325c199,-160 369,-399 461,-646c97,-260 116,-574 52,-855c-56,-242 -80,-285 -794,-1396c-354,-549 -648,-1005 -655,-1012c-10,-10 -141,188 -652,980c-359,558 -663,1041 -694,1103c-64,128 -100,230 -131,375c-33,150 -33,428 0,580c64,302 202,559 412,769c331,331 791,488 1250,427z"></path><path d="M2450,4224c-218,-40 -377,-120 -516,-258c-118,-119 -197,-259 -240,-426c-28,-112 -26,-327 4,-435c91,-321 334,-560 651,-642c170,-43 380,-31 540,32c237,93 424,279 516,516c63,160 75,371 32,540c-67,260 -241,472 -482,589c-124,60 -210,81 -355,85c-69,2 -136,2 -150,-1zM2761,3898c88,-33 146,-67 212,-128c74,-68 125,-146 160,-249c49,-142 38,-320 -28,-450c-58,-116 -160,-217 -276,-276c-129,-66 -308,-77 -450,-28c-239,82 -392,283 -406,533c-16,292 170,543 456,615c85,22 249,13 332,-17z"></path></g></g></g></svg>