<!-- <svg version="1.1" xmlns="http://www.w3.org/2000/svg" xmlns:xlink="http://www.w3.org/1999/xlink" width="17" height="17" viewBox="0,0,256,256"><g fill="#0069b5;" fill-rule="none" stroke="none" stroke-width="1" stroke-linecap="butt" stroke-linejoin="miter" stroke-miterlimit="10" stroke-dasharray="" stroke-dashoffset="0" font-family="none" font-weight="none" font-size="none" text-anchor="none" style="mix-blend-mode: normal"><g transform="scale(10.66667,10.66667)"><path d="M12,20.75c2.3206,0 4.5462,-0.9219 6.1872,-2.5628c1.6409,-1.641 2.5628,-3.8666 2.5628,-6.1872c0,-2.32064 -0.9219,-4.54624 -2.5628,-6.18718c-1.641,-1.64095 -3.8666,-2.56282 -6.1872,-2.56282c-2.32064,0 -4.54624,0.92187 -6.18718,2.56282c-1.64095,1.64094 -2.56282,3.86654 -2.56282,6.18718c0,2.3206 0.92187,4.5462 2.56282,6.1872c1.64094,1.6409 3.86654,2.5628 6.18718,2.5628zM12,22c2.6522,0 5.1957,-1.0536 7.0711,-2.9289c1.8753,-1.8754 2.9289,-4.4189 2.9289,-7.0711c0,-2.65216 -1.0536,-5.1957 -2.9289,-7.07107c-1.8754,-1.87536 -4.4189,-2.92893 -7.0711,-2.92893c-2.65216,0 -5.1957,1.05357 -7.07107,2.92893c-1.87536,1.87537 -2.92893,4.41891 -2.92893,7.07107c0,2.6522 1.05357,5.1957 2.92893,7.0711c1.87537,1.8753 4.41891,2.9289 7.07107,2.9289z" fill-rule="evenodd"></path><path d="M13.1626,10.235l-2.8625,0.3587l-0.1025,0.475l0.5625,0.1038c0.3675,0.0875 0.44,0.22 0.36,0.5862l-0.9225,4.335c-0.24254,1.1213 0.1312,1.6488 1.01,1.6488c0.6812,0 1.4725,-0.315 1.8312,-0.7475l0.11,-0.52c-0.25,0.22 -0.615,0.3075 -0.8575,0.3075c-0.3437,0 -0.4687,-0.2413 -0.38,-0.6663z" fill-rule="nonzero"></path><path d="M12,8.875c0.6904,0 1.25,-0.55964 1.25,-1.25c0,-0.69036 -0.5596,-1.25 -1.25,-1.25c-0.6904,0 -1.25,0.55964 -1.25,1.25c0,0.69036 0.5596,1.25 1.25,1.25z" fill-rule="nonzero"></path></g></g></svg> -->
<svg xmlns="http://www.w3.org/2000/svg" xmlns:xlink="http://www.w3.org/1999/xlink" width="17px" height="17px" viewBox="0 0 17 17" version="1.1">
    <defs/>
    <g id="Web-" stroke="none" stroke-width="1" fill="none" fill-rule="evenodd">
        <g id="1.-Главная.-Ссылка-5-шагов" transform="translate(-642.000000, -362.000000)" fill="#0073FF">
            <g id="Info-Link" transform="translate(450.000000, 350.000000)">
                <g id="Icons-/-Info" transform="translate(192.000000, 12.000000)">
                    <circle id="Oval" fill-opacity="0.15" cx="8.5" cy="8.5" r="8.5"/>
                    <path d="M10.7363281,4.16545206 C10.7363281,4.45126318 10.6344433,4.69605145 10.4306705,4.89982419 C10.2268978,5.10359694 9.98740224,5.20548178 9.71217671,5.20548178 C9.41577999,5.20548178 9.16834537,5.10359694 8.96986542,4.89982419 C8.77138547,4.69605145 8.67214699,4.45126318 8.67214699,4.16545206 C8.67214699,3.89022653 8.77138547,3.65073098 8.96986542,3.44695824 C9.16834537,3.24318549 9.41577999,3.14130065 9.71217671,3.14130065 C9.90271746,3.14130065 10.076054,3.18761194 10.2321916,3.28023592 C10.3883291,3.37285989 10.5113849,3.49459243 10.6013624,3.64543719 C10.69134,3.79628195 10.7363281,3.96961851 10.7363281,4.16545206 Z M10.5557123,11.1142003 C10.3460678,11.5818687 10.0181673,12.0602809 9.57200095,12.5494512 C9.12583457,13.0386216 8.5667911,13.2832031 7.89485378,13.2832031 C7.4433119,13.2832031 7.10466057,13.1716632 6.87888962,12.94858 C6.65311868,12.7254968 6.54023491,12.4607575 6.54023491,12.1543541 C6.54023491,11.8425751 6.63968014,11.409854 6.83857359,10.8561776 L7.87872736,8.00986538 C7.98086184,7.75184144 8.03192831,7.57714036 8.03192831,7.48575688 C8.03192831,7.4266264 8.00773893,7.37287222 7.95935944,7.32449273 C7.91097995,7.27611325 7.85722577,7.25192386 7.79809529,7.25192386 C7.61532834,7.25192386 7.41509402,7.39437244 7.19738632,7.67927387 C6.97967863,7.96417529 6.81707224,8.21950764 6.70956227,8.44527858 L6,8.44527858 C6.31715442,7.73571277 6.72971774,7.18607628 7.23770236,6.79635264 C7.74568698,6.40662899 8.25232012,6.21177009 8.75761699,6.21177009 C9.11239989,6.21177009 9.40670403,6.29912063 9.64053822,6.47382433 C9.87437241,6.64852804 9.99128775,6.88101487 9.99128775,7.17129179 C9.99128775,7.47769521 9.93215815,7.78678174 9.81389718,8.09856066 L8.5560368,11.4770446 C8.47002882,11.7081911 8.42702548,11.8963307 8.42702548,12.0414692 C8.42702548,12.1059751 8.45255871,12.1691363 8.50362595,12.2309545 C8.55469319,12.2927728 8.60979122,12.3236814 8.6689217,12.3236814 C8.83018666,12.3236814 8.99682462,12.2376747 9.16884057,12.0656588 C9.34085653,11.8936428 9.55587325,11.5764932 9.81389718,11.1142003 L10.5557123,11.1142003 Z" id="info"/>
                </g>
            </g>
        </g>
    </g>
</svg>
