<svg version="1.1" xmlns="http://www.w3.org/2000/svg" xmlns:xlink="http://www.w3.org/1999/xlink" width="17" height="17" viewBox="0,0,256,256"><g fill="#7e8389" fill-rule="none" stroke="none" stroke-width="1" stroke-linecap="butt" stroke-linejoin="miter" stroke-miterlimit="10" stroke-dasharray="" stroke-dashoffset="0" font-family="none" font-weight="none" font-size="none" text-anchor="none" style="mix-blend-mode: normal"><g transform="scale(10.66667,10.66667)"><path d="M12,20.75c2.3206,0 4.5462,-0.9219 6.1872,-2.5628c1.6409,-1.641 2.5628,-3.8666 2.5628,-6.1872c0,-2.32064 -0.9219,-4.54624 -2.5628,-6.18718c-1.641,-1.64095 -3.8666,-2.56282 -6.1872,-2.56282c-2.32064,0 -4.54624,0.92187 -6.18718,2.56282c-1.64095,1.64094 -2.56282,3.86654 -2.56282,6.18718c0,2.3206 0.92187,4.5462 2.56282,6.1872c1.64094,1.6409 3.86654,2.5628 6.18718,2.5628zM12,22c2.6522,0 5.1957,-1.0536 7.0711,-2.9289c1.8753,-1.8754 2.9289,-4.4189 2.9289,-7.0711c0,-2.65216 -1.0536,-5.1957 -2.9289,-7.07107c-1.8754,-1.87536 -4.4189,-2.92893 -7.0711,-2.92893c-2.65216,0 -5.1957,1.05357 -7.07107,2.92893c-1.87536,1.87537 -2.92893,4.41891 -2.92893,7.07107c0,2.6522 1.05357,5.1957 2.92893,7.0711c1.87537,1.8753 4.41891,2.9289 7.07107,2.9289z" fill-rule="evenodd"></path><path d="M13.1626,10.235l-2.8625,0.3587l-0.1025,0.475l0.5625,0.1038c0.3675,0.0875 0.44,0.22 0.36,0.5862l-0.9225,4.335c-0.24254,1.1213 0.1312,1.6488 1.01,1.6488c0.6812,0 1.4725,-0.315 1.8312,-0.7475l0.11,-0.52c-0.25,0.22 -0.615,0.3075 -0.8575,0.3075c-0.3437,0 -0.4687,-0.2413 -0.38,-0.6663z" fill-rule="nonzero"></path><path d="M12,8.875c0.6904,0 1.25,-0.55964 1.25,-1.25c0,-0.69036 -0.5596,-1.25 -1.25,-1.25c-0.6904,0 -1.25,0.55964 -1.25,1.25c0,0.69036 0.5596,1.25 1.25,1.25z" fill-rule="nonzero"></path></g></g></svg>