<?xml version="1.0" encoding="utf-8"?><svg viewBox="0 0 682.667 682.667" xmlns="http://www.w3.org/2000/svg" xmlns:xlink="http://www.w3.org/1999/xlink"><style>:root>svg{display:none}:root>svg:target{display:block}</style><svg viewBox="0 0 24 24" id="basket" xmlns="http://www.w3.org/2000/svg"><path d="M21.55 14.143l1.227-6.75A1.5 1.5 0 0021.3 5.625H5.575l-.457-2.518a1.5 1.5 0 00-1.476-1.232H1.949a.75.75 0 000 1.5h1.693l2.503 13.768c.022.122.06.24.111.353a2.624 2.624 0 104.065.879h6.507a2.625 2.625 0 102.372-1.5H7.62l-.272-1.5h12.726a1.5 1.5 0 001.475-1.232zM9.073 19.5a1.125 1.125 0 11-2.25 0 1.125 1.125 0 012.25 0zm11.25 0a1.125 1.125 0 11-2.25 0 1.125 1.125 0 012.25 0zM5.848 7.125h15.453l-1.227 6.75H7.075l-1.227-6.75z"/></svg><svg version="1.0" viewBox="0 0 512 512" id="heart" xmlns="http://www.w3.org/2000/svg"><path d="M148 70.1c-35.5 4.1-68.3 26.9-85.7 59.5-10 18.7-13.7 34-13.8 55.9 0 21.1 3.6 36.8 12.3 54.1 6.8 13.4 13.5 21.7 39.6 48.8 13.9 14.3 52.4 54.2 85.5 88.6 33.1 34.4 61.4 63.1 62.9 63.9 3.9 2.1 11.3 1.9 15-.5 3.6-2.2 167.2-171.6 174.5-180.7 17.7-22 26.9-51 25.3-79.7-2.3-43.9-26.9-81.4-65.1-99.6-36.3-17.2-76.1-14.1-110.1 8.6-4.5 3-13.2 10.7-20.1 17.6L256 118.9l-12.7-12.7c-7.1-7-16-14.9-20-17.5-15.4-10.2-32.9-16.7-50.6-18.6-10.7-1.2-13.9-1.2-24.7 0zm22.7 32c10.8 1.4 22.8 5.7 32 11.5 5.8 3.6 12.3 9.4 25.8 23.2 9.9 10.1 19.2 19 20.7 19.8 3.5 1.8 10.1 1.8 13.6 0 1.5-.8 10.7-9.6 20.4-19.5 22.5-23 31.9-29.3 50.6-33.8 8.9-2.1 25.6-2.1 34.6.1 46.9 11.3 74.3 61.3 59.5 108.6-2.8 9-8.4 19.8-13.5 26.4C409.8 244.2 257 403 256 403S102.2 244.2 97.6 238.4C89.7 228.3 83.2 212.9 81 199c-6.8-43.3 21.1-86.1 62.2-95.4 11.4-2.7 17-3 27.5-1.5z"/></svg><svg class="cicon-phone" viewBox="-74 0 100 100" id="phone" xmlns="http://www.w3.org/2000/svg"><path d="M21.2 71.7L9.1 59.5c-2-2-4.7-3.2-7.2-3.2-2.7 0-5.1 1.1-7.2 3.2l-7 7c-.3-.2-.7-.4-1-.5 0 0-.1 0-.1-.1l-.1-.1c-.9-.6-1.9-1.2-3.1-1.7-6.1-3.8-11.8-9.1-17.6-16.2-2.7-3.4-4.6-6.4-6.1-9.7 1.6-1.3 2.8-2.6 3.7-3.6l3.1-3.1c2.4-2.2 3.6-4.7 3.6-7.3 0-2.7-1.2-5.2-3.5-7.6l-9.5-9.5c-.9-.9-1.8-1.8-2.8-2.7-2-1.9-4.5-3-7.1-3-2.9 0-5.3 1-7.5 3.2l-7.3 7.3c-2.9 2.7-4.6 6.1-5 10.3v.1c-.2 5.2.6 10 2.8 16 3.5 9.4 8.8 18.2 16.7 27.9C-42.8 77.8-31.2 86.8-18.3 93l.3.1c3.8 1.7 11 4.9 19 5.4h1.1c5.3 0 9.3-1.7 12.6-5.3 1.2-1.4 2.5-2.7 3.6-3.9.9-.7 1.5-1.4 2.1-2.1l.8-.8.2-.2c4.2-4.6 4.2-10.2-.2-14.5zm-3.5 11.1l-1 1-.1.2c-.5.6-.9 1.1-1.4 1.5l-.3.3c-1.2 1.2-2.6 2.6-4 4.2-2.3 2.5-4.9 3.6-8.8 3.6h-.8c-7-.5-13.4-3.3-17.2-5l-.2-.1C-28.4 82.6-39.5 74-49.2 63c-7.6-9.2-12.6-17.6-15.9-26.4-2-5.5-2.7-9.5-2.5-14 .3-2.9 1.4-5.2 3.4-7l7.4-7.4c1.2-1.2 2.4-1.7 3.9-1.7 1.3 0 2.5.6 3.6 1.6l.1.1c.9.8 1.8 1.7 2.7 2.6l9.5 9.5c1.8 1.8 2.1 3.2 2.1 4 0 .8-.2 2-2.1 3.7l-3.2 3.2c-1.1 1.2-2.4 2.5-4.1 3.9l-.2.2-.2.3c-.9 1.2-1 2.3-.5 3.9l.1.4.1.4c1.7 3.7 3.8 7.1 6.8 10.9 6.2 7.6 12.4 13.3 19 17.4l.3.2c.8.4 1.6.8 2.3 1.2.3.3.7.5 1 .6.4.2.7.3.9.5l.7.5h.2l.3.1c.6.2 1 .2 1.3.2 1 0 1.9-.4 2.8-1.3l7.5-7.5c1.2-1.2 2.3-1.7 3.7-1.7 1.5 0 2.9.9 3.7 1.7l12.2 12.2c2.4 2.4 2.5 4.9 0 7.5z"/></svg><svg viewBox="0 0 24 24" id="user" xmlns="http://www.w3.org/2000/svg"><path fill-rule="evenodd" clip-rule="evenodd" d="M19.5 21s1.5 0 1.5-1.5-1.5-6-9-6-9 4.5-9 6S4.5 21 4.5 21h15zM4.508 19.584v-.003.003zm.025-.084h14.934a.379.379 0 00.021-.003l.012-.003c-.002-.369-.231-1.479-1.248-2.496C17.274 16.02 15.434 15 12 15c-3.435 0-5.274 1.02-6.252 1.998-1.017 1.017-1.245 2.127-1.248 2.496l.033.006zm14.961.084v-.003.003zM12 10.5a3 3 0 100-6 3 3 0 000 6zm4.5-3a4.5 4.5 0 11-9 0 4.5 4.5 0 019 0z"/></svg></svg>