<?xml version="1.0" encoding="utf-8"?><svg viewBox="0 0 100 100" xmlns="http://www.w3.org/2000/svg" xmlns:xlink="http://www.w3.org/1999/xlink"><style>:root>svg{display:none}:root>svg:target{display:block}</style><svg viewBox="0 0 24 24" id="basket" xmlns="http://www.w3.org/2000/svg"><path d="M21.55 14.143l1.227-6.75A1.5 1.5 0 0021.3 5.625H5.575l-.457-2.518a1.5 1.5 0 00-1.476-1.232H1.949a.75.75 0 000 1.5h1.693l2.503 13.768c.022.122.06.24.111.353a2.624 2.624 0 104.065.879h6.507a2.625 2.625 0 102.372-1.5H7.62l-.272-1.5h12.726a1.5 1.5 0 001.475-1.232zM9.073 19.5a1.125 1.125 0 11-2.25 0 1.125 1.125 0 012.25 0zm11.25 0a1.125 1.125 0 11-2.25 0 1.125 1.125 0 012.25 0zM5.848 7.125h15.453l-1.227 6.75H7.075l-1.227-6.75z"/></svg><svg viewBox="0 0 24 25" id="heart" xmlns="http://www.w3.org/2000/svg"><path d="M11.662 5.463l.338.311.338-.31a5.406 5.406 0 015.745-1.008 5.429 5.429 0 011.767 1.187c2.163 2.173 2.162 5.552.003 7.71l-7.415 7.416-.022.022-.02.026a.478.478 0 01-.25.156.737.737 0 01-.144.027l-.018-.003a.755.755 0 01-.47-.274l-.017-.02-.018-.017-7.332-7.332c-2.159-2.158-2.16-5.538-.002-7.706h.001a5.442 5.442 0 013.858-1.61c1.355 0 2.66.508 3.658 1.425zM11.993 21zm7.152-14.648l-.001-.001c-1.705-1.697-4.583-1.702-6.29.002-.28.28-.61.777-.85 1.16L12 7.522a4.04 4.04 0 01-.004-.007c-.24-.384-.57-.88-.85-1.16a4.425 4.425 0 00-3.142-1.317c-1.18 0-2.3.471-3.152 1.318l-.001.001c-1.753 1.762-1.755 4.532.002 6.29l6.793 6.794.354.353.354-.353 6.793-6.793c1.757-1.76 1.755-4.53-.002-6.295z"/></svg><svg class="cicon-phone" viewBox="-74 0 100 100" id="phone" xmlns="http://www.w3.org/2000/svg"><path d="M21.2 71.7L9.1 59.5c-2-2-4.7-3.2-7.2-3.2-2.7 0-5.1 1.1-7.2 3.2l-7 7c-.3-.2-.7-.4-1-.5 0 0-.1 0-.1-.1l-.1-.1c-.9-.6-1.9-1.2-3.1-1.7-6.1-3.8-11.8-9.1-17.6-16.2-2.7-3.4-4.6-6.4-6.1-9.7 1.6-1.3 2.8-2.6 3.7-3.6l3.1-3.1c2.4-2.2 3.6-4.7 3.6-7.3 0-2.7-1.2-5.2-3.5-7.6l-9.5-9.5c-.9-.9-1.8-1.8-2.8-2.7-2-1.9-4.5-3-7.1-3-2.9 0-5.3 1-7.5 3.2l-7.3 7.3c-2.9 2.7-4.6 6.1-5 10.3v.1c-.2 5.2.6 10 2.8 16 3.5 9.4 8.8 18.2 16.7 27.9C-42.8 77.8-31.2 86.8-18.3 93l.3.1c3.8 1.7 11 4.9 19 5.4h1.1c5.3 0 9.3-1.7 12.6-5.3 1.2-1.4 2.5-2.7 3.6-3.9.9-.7 1.5-1.4 2.1-2.1l.8-.8.2-.2c4.2-4.6 4.2-10.2-.2-14.5zm-3.5 11.1l-1 1-.1.2c-.5.6-.9 1.1-1.4 1.5l-.3.3c-1.2 1.2-2.6 2.6-4 4.2-2.3 2.5-4.9 3.6-8.8 3.6h-.8c-7-.5-13.4-3.3-17.2-5l-.2-.1C-28.4 82.6-39.5 74-49.2 63c-7.6-9.2-12.6-17.6-15.9-26.4-2-5.5-2.7-9.5-2.5-14 .3-2.9 1.4-5.2 3.4-7l7.4-7.4c1.2-1.2 2.4-1.7 3.9-1.7 1.3 0 2.5.6 3.6 1.6l.1.1c.9.8 1.8 1.7 2.7 2.6l9.5 9.5c1.8 1.8 2.1 3.2 2.1 4 0 .8-.2 2-2.1 3.7l-3.2 3.2c-1.1 1.2-2.4 2.5-4.1 3.9l-.2.2-.2.3c-.9 1.2-1 2.3-.5 3.9l.1.4.1.4c1.7 3.7 3.8 7.1 6.8 10.9 6.2 7.6 12.4 13.3 19 17.4l.3.2c.8.4 1.6.8 2.3 1.2.3.3.7.5 1 .6.4.2.7.3.9.5l.7.5h.2l.3.1c.6.2 1 .2 1.3.2 1 0 1.9-.4 2.8-1.3l7.5-7.5c1.2-1.2 2.3-1.7 3.7-1.7 1.5 0 2.9.9 3.7 1.7l12.2 12.2c2.4 2.4 2.5 4.9 0 7.5z"/></svg><svg viewBox="0 0 24 24" id="user" xmlns="http://www.w3.org/2000/svg"><path fill-rule="evenodd" clip-rule="evenodd" d="M19.5 21s1.5 0 1.5-1.5-1.5-6-9-6-9 4.5-9 6S4.5 21 4.5 21h15zM4.508 19.584v-.003.003zm.025-.084h14.934a.379.379 0 00.021-.003l.012-.003c-.002-.369-.231-1.479-1.248-2.496C17.274 16.02 15.434 15 12 15c-3.435 0-5.274 1.02-6.252 1.998-1.017 1.017-1.245 2.127-1.248 2.496l.033.006zm14.961.084v-.003.003zM12 10.5a3 3 0 100-6 3 3 0 000 6zm4.5-3a4.5 4.5 0 11-9 0 4.5 4.5 0 019 0z"/></svg></svg>