<?xml version="1.0" encoding="utf-8"?><svg viewBox="0 0 682.667 682.667" xmlns="http://www.w3.org/2000/svg" xmlns:xlink="http://www.w3.org/1999/xlink"><style>:root>svg{display:none}:root>svg:target{display:block}</style><svg viewBox="0 0 24 24" id="basket" xmlns="http://www.w3.org/2000/svg"><path d="M21.55 14.143l1.227-6.75A1.5 1.5 0 0021.3 5.625H5.575l-.457-2.518a1.5 1.5 0 00-1.476-1.232H1.949a.75.75 0 000 1.5h1.693l2.503 13.768c.022.122.06.24.111.353a2.624 2.624 0 104.065.879h6.507a2.625 2.625 0 102.372-1.5H7.62l-.272-1.5h12.726a1.5 1.5 0 001.475-1.232zM9.073 19.5a1.125 1.125 0 11-2.25 0 1.125 1.125 0 012.25 0zm11.25 0a1.125 1.125 0 11-2.25 0 1.125 1.125 0 012.25 0zM5.848 7.125h15.453l-1.227 6.75H7.075l-1.227-6.75z"/></svg><svg viewBox="0 0 32 32" id="burger" xmlns="http://www.w3.org/2000/svg"><path d="M27 17H5a1 1 0 010-2h22a1 1 0 010 2zm0-7H5a1 1 0 010-2h22a1 1 0 010 2zm0 14H5a1 1 0 010-2h22a1 1 0 010 2z" data-original="#000000" data-name="Layer 2"/></svg><svg viewBox="0 0 256 256" id="chevron-down" xmlns="http://www.w3.org/2000/svg"><path d="M127.869 192.066a10.89 10.89 0 01-7.541-3.125L13.66 82.274a10.667 10.667 0 0115.083-15.083l99.125 99.126 99.125-99.126a10.667 10.667 0 1115.083 15.083L135.41 188.941a10.906 10.906 0 01-7.541 3.125z" font-family="none" font-weight="none" font-size="none" text-anchor="none"/></svg><svg version="1.0" viewBox="0 0 512 512" id="heart" xmlns="http://www.w3.org/2000/svg"><path d="M148 70.1c-35.5 4.1-68.3 26.9-85.7 59.5-10 18.7-13.7 34-13.8 55.9 0 21.1 3.6 36.8 12.3 54.1 6.8 13.4 13.5 21.7 39.6 48.8 13.9 14.3 52.4 54.2 85.5 88.6 33.1 34.4 61.4 63.1 62.9 63.9 3.9 2.1 11.3 1.9 15-.5 3.6-2.2 167.2-171.6 174.5-180.7 17.7-22 26.9-51 25.3-79.7-2.3-43.9-26.9-81.4-65.1-99.6-36.3-17.2-76.1-14.1-110.1 8.6-4.5 3-13.2 10.7-20.1 17.6L256 118.9l-12.7-12.7c-7.1-7-16-14.9-20-17.5-15.4-10.2-32.9-16.7-50.6-18.6-10.7-1.2-13.9-1.2-24.7 0zm22.7 32c10.8 1.4 22.8 5.7 32 11.5 5.8 3.6 12.3 9.4 25.8 23.2 9.9 10.1 19.2 19 20.7 19.8 3.5 1.8 10.1 1.8 13.6 0 1.5-.8 10.7-9.6 20.4-19.5 22.5-23 31.9-29.3 50.6-33.8 8.9-2.1 25.6-2.1 34.6.1 46.9 11.3 74.3 61.3 59.5 108.6-2.8 9-8.4 19.8-13.5 26.4C409.8 244.2 257 403 256 403S102.2 244.2 97.6 238.4C89.7 228.3 83.2 212.9 81 199c-6.8-43.3 21.1-86.1 62.2-95.4 11.4-2.7 17-3 27.5-1.5z"/></svg><svg viewBox="0 0 24 24" id="left-arrow" xmlns="http://www.w3.org/2000/svg"><path fill-rule="evenodd" clip-rule="evenodd" d="M9.207 17.207a1 1 0 01-1.414 0l-4.5-4.5a1 1 0 010-1.414l4.5-4.5a1 1 0 011.414 1.414L6.414 11H20a1 1 0 110 2H6.414l2.793 2.793a1 1 0 010 1.414z"/></svg><svg stroke-width="0" viewBox="0 0 24 24" class="fml-8 ftext-16 fblock ftext-white ftext-opacity-50" id="link" xmlns="http://www.w3.org/2000/svg"><path d="M19 19H5V5h7V3H5a2 2 0 00-2 2v14a2 2 0 002 2h14c1.1 0 2-.9 2-2v-7h-2v7zM14 3v2h3.59l-9.83 9.83 1.41 1.41L19 6.41V10h2V3h-7z"/></svg><svg class="gicon-phone" viewBox="-74 0 100 100" id="phone" xmlns="http://www.w3.org/2000/svg"><path d="M21.2 71.7L9.1 59.5c-2-2-4.7-3.2-7.2-3.2-2.7 0-5.1 1.1-7.2 3.2l-7 7c-.3-.2-.7-.4-1-.5 0 0-.1 0-.1-.1l-.1-.1c-.9-.6-1.9-1.2-3.1-1.7-6.1-3.8-11.8-9.1-17.6-16.2-2.7-3.4-4.6-6.4-6.1-9.7 1.6-1.3 2.8-2.6 3.7-3.6l3.1-3.1c2.4-2.2 3.6-4.7 3.6-7.3 0-2.7-1.2-5.2-3.5-7.6l-9.5-9.5c-.9-.9-1.8-1.8-2.8-2.7-2-1.9-4.5-3-7.1-3-2.9 0-5.3 1-7.5 3.2l-7.3 7.3c-2.9 2.7-4.6 6.1-5 10.3v.1c-.2 5.2.6 10 2.8 16 3.5 9.4 8.8 18.2 16.7 27.9C-42.8 77.8-31.2 86.8-18.3 93l.3.1c3.8 1.7 11 4.9 19 5.4h1.1c5.3 0 9.3-1.7 12.6-5.3 1.2-1.4 2.5-2.7 3.6-3.9.9-.7 1.5-1.4 2.1-2.1l.8-.8.2-.2c4.2-4.6 4.2-10.2-.2-14.5zm-3.5 11.1l-1 1-.1.2c-.5.6-.9 1.1-1.4 1.5l-.3.3c-1.2 1.2-2.6 2.6-4 4.2-2.3 2.5-4.9 3.6-8.8 3.6h-.8c-7-.5-13.4-3.3-17.2-5l-.2-.1C-28.4 82.6-39.5 74-49.2 63c-7.6-9.2-12.6-17.6-15.9-26.4-2-5.5-2.7-9.5-2.5-14 .3-2.9 1.4-5.2 3.4-7l7.4-7.4c1.2-1.2 2.4-1.7 3.9-1.7 1.3 0 2.5.6 3.6 1.6l.1.1c.9.8 1.8 1.7 2.7 2.6l9.5 9.5c1.8 1.8 2.1 3.2 2.1 4 0 .8-.2 2-2.1 3.7l-3.2 3.2c-1.1 1.2-2.4 2.5-4.1 3.9l-.2.2-.2.3c-.9 1.2-1 2.3-.5 3.9l.1.4.1.4c1.7 3.7 3.8 7.1 6.8 10.9 6.2 7.6 12.4 13.3 19 17.4l.3.2c.8.4 1.6.8 2.3 1.2.3.3.7.5 1 .6.4.2.7.3.9.5l.7.5h.2l.3.1c.6.2 1 .2 1.3.2 1 0 1.9-.4 2.8-1.3l7.5-7.5c1.2-1.2 2.3-1.7 3.7-1.7 1.5 0 2.9.9 3.7 1.7l12.2 12.2c2.4 2.4 2.5 4.9 0 7.5z"/></svg><svg viewBox="0 0 64 64" id="popular-1" xmlns="http://www.w3.org/2000/svg"><path d="M36.276 13.999c-.035 0-.07 0-.105.002a1.13 1.13 0 00-.305.066l-5.623 2.043a1.126 1.126 0 00-.325 1.928l3.812 3.08-5.961 1.694-2.934-4.891a1.126 1.126 0 00-1.237-.514l-4.49 1.13a1.124 1.124 0 00-.799 1.443l2.167 6.508A13.488 13.488 0 0016 36.502c0 7.406 6 13.434 13.392 13.493a1.179 1.179 0 00.213.002C37 49.94 43 43.908 43 36.502c0-3.216-1.166-6.287-3.213-8.706l7.895-1.437s.978-.154 1.993-.64c.508-.242 1.045-.567 1.503-1.072.459-.504.822-1.232.822-2.058v-.3c0-2.702-2.213-4.917-4.915-4.917-.105.003-.208.02-.308.05l-4.742 1.345-5.04-4.482a1.124 1.124 0 00-.719-.286zm-.279 2.42l5 4.433c.286.256.684.347 1.054.242l5.067-1.437c1.468.028 2.632 1.156 2.632 2.632v.3c0 .222-.058.354-.233.546-.174.192-.477.397-.813.558a6.093 6.093 0 01-1.386.448H47.3l-9.995 1.82-5.575 1.013-5.33.969-2.892.525-.663-1.99-.002-.003-2.017-6.054 2.515-.624 2.949 4.91a1.123 1.123 0 001.27.505l8.877-2.525a1.126 1.126 0 00.4-1.951l-3.953-3.189 3.113-1.129zm1.064 11.875c2.023 1.87 3.34 4.368 3.628 7.085h-5.643c-.112-2.139-.591-4.291-1.492-6.448l3.507-.637zm-15.78.617l.106.313.293.88.002.003a1.064 1.064 0 00.09.202l.002.002a1.144 1.144 0 00.06.095 1.128 1.128 0 00.23.24 1.123 1.123 0 00.094.064 1.134 1.134 0 00.418.156h.007c.035.004.07.008.105.01h.007a1.075 1.075 0 00.255-.018l1.632-.296.268-.049a18.76 18.76 0 00-.923 4.865h-5.616c.255-2.425 1.32-4.677 2.971-6.466zm9.91.449c.916 2.038 1.412 4.038 1.537 6.018h-6.493c.107-1.76.512-3.537 1.243-5.341l.075-.016 3.639-.661zm-12.886 8.268h5.651c.24 3.367 1.401 6.683 3.334 9.904a11.23 11.23 0 01-8.985-9.904zm7.96 0h6.445c-.245 3.015-1.348 5.996-3.215 9.002-1.867-3.007-2.977-5.987-3.23-9.002zm8.765 0h5.665a11.23 11.23 0 01-8.987 9.904c1.93-3.22 3.086-6.537 3.322-9.904z"/></svg><svg viewBox="0 0 64 64" id="popular-2" xmlns="http://www.w3.org/2000/svg"><path d="M25.25 25.458a1 1 0 00-1.002-.095c-1.958.9-3.733 3.442-4.635 6.634-1.212 4.294-.61 8.697 1.654 12.083C23.708 47.731 28.175 50 32.925 50c3.802 0 7.344-1.47 9.716-4.034 4.578-4.944 3.169-12.142-.588-16.696-.716-.87-1.422-1.653-2.106-2.412-3.261-3.62-5.416-6.01-3.123-11.468a1.001 1.001 0 00-1.216-1.346c-5.675 1.741-7.919 5.333-6.855 10.984.067.357.164.742.267 1.15.638 2.52.702 3.732-.604 4.26a.967.967 0 01-.369.076c-.45 0-.866-.357-1.136-.656-.797-.886-1.357-2.447-1.249-3.482a1.001 1.001 0 00-.411-.918zm3.916 6.837c3.146-1.272 2.3-4.613 1.796-6.608a18.052 18.052 0 01-.242-1.03c-.741-3.943.323-6.413 3.534-7.953-1.41 5.263 1.216 8.178 4.205 11.495.67.742 1.362 1.51 2.05 2.345 3.125 3.789 4.42 10.005.663 14.062-1.995 2.156-5.002 3.392-8.247 3.392-4.09 0-7.918-1.927-9.992-5.03-1.938-2.898-2.445-6.697-1.392-10.426.507-1.797 1.358-3.391 2.303-4.407.28 1.12.844 2.248 1.58 3.064 1.089 1.21 2.47 1.612 3.742 1.096z"/><path d="M34.032 45.03c2.073 0 4.593-.735 5.45-2.798 1.645-3.95-1.624-7.544-3.577-9.693-.21-.23-.406-.445-.579-.644a.999.999 0 00-1.09-.282.999.999 0 00-.663.91c-.063 1.975-1.2 3.161-2.404 4.418-1.295 1.35-2.762 2.88-2.232 5.301.421 1.926 2.862 2.788 5.095 2.788zm-1.419-6.703c.91-.95 1.979-2.064 2.552-3.615 1.636 1.865 3.467 4.351 2.467 6.751-.45 1.081-2.132 1.565-3.6 1.565-1.775 0-3.012-.63-3.14-1.214-.287-1.314.43-2.14 1.721-3.488z"/></svg><svg viewBox="0 0 64 64" id="popular-3" xmlns="http://www.w3.org/2000/svg"><path d="M49.203 45.156L38.897 22.387c-.12-.36-.48-.6-.839-.719-.36-.12-.839 0-1.078.36L21.64 37.367c-.239.24-.359.719-.359 1.078.12.36.36.72.72.839L44.768 49.59c.48.24.959.36 1.558.36 1.079 0 2.157-.6 2.756-1.439.6-.958.6-2.157.12-3.355zM32.786 41.44l8.388-8.389 3.236 6.951-4.554 4.554-7.07-3.116zm4.553-16.418l2.637 5.872-9.587 9.587-5.872-2.636 12.822-12.823zm9.707 22.17c-.24.36-.719.48-1.198.24l-3.715-1.678 3.235-3.236 1.678 3.715c.12.36.12.72 0 .96zM29.185 28.38c.24 0 .36 0 .599-.12.6-.359.839-1.078.48-1.677-1.439-2.637-1.559-5.393-.24-7.55.958-1.558 2.516-2.636 3.954-2.636.72 0 1.199-.48 1.199-1.199 0-.719-.48-1.198-1.199-1.198-2.397 0-4.673 1.438-6.112 3.835-1.677 2.876-1.677 6.59.24 9.946.24.36.6.6 1.079.6zM15.29 24.665c1.558-.6 3.356-.6 5.034.12 1.917.838 3.475 2.276 4.074 4.074.24.48.6.719 1.078.719.12 0 .24 0 .48-.12.599-.24.959-.959.719-1.558-.839-2.277-2.876-4.314-5.393-5.273-2.277-.958-4.793-.958-6.95-.12-.6.24-.84.96-.6 1.558.24.6.96.84 1.558.6zm8.626 8.387c.599.24 1.318-.12 1.558-.72.24-.599-.12-1.318-.72-1.557-2.037-.72-5.392-.48-7.909 1.558-2.396 1.797-3.595 4.673-3.235 8.148 0 .6.599 1.079 1.198 1.079h.12c.599-.12 1.198-.6 1.078-1.318-.36-3.236 1.079-5.033 2.277-5.992 1.798-1.318 4.314-1.678 5.633-1.198zm.483-15.454a2.397 2.397 0 11-4.794 0 2.397 2.397 0 014.794 0z"/><path d="M19.606 28.38a2.397 2.397 0 11-4.794-.001 2.397 2.397 0 014.794 0z"/></svg><svg viewBox="0 0 64 64" id="popular-4" xmlns="http://www.w3.org/2000/svg"><path d="M23.002 14a2.27 2.27 0 00-2.25 2.25v2.252A2.27 2.27 0 0023 20.752V27.5h-6.75A2.27 2.27 0 0014 29.75v18A2.27 2.27 0 0016.25 50h9c.178 0 .348-.024.506-.062h.002c.2.038.406.062.617.062h11.25c.209 0 .412-.024.611-.062.16.038.332.062.512.062h9.003A2.27 2.27 0 0050 47.75V29.754a2.27 2.27 0 00-2.25-2.25H41v-6.752a2.27 2.27 0 002.247-2.25V16.25a2.27 2.27 0 00-2.25-2.25H23.002zm0 2.25h17.996v2.252h-1.382a.85.85 0 00-.05-.002H24.434a.95.95 0 00-.037.002h-1.396V16.25zm2.248 4.502h13.5v7.792a1.106 1.106 0 00-.002.081V46.63c0 .016-.006.03-.007.046-.005.123-.03.238-.068.345a1.02 1.02 0 01-.1.191c-.025.04-.049.08-.078.117a1.071 1.071 0 01-.202.19c-.017.014-.036.024-.055.036a1.181 1.181 0 01-.27.13 1.15 1.15 0 01-.343.066H36.5v-5.625a3.393 3.393 0 00-3.375-3.375h-2.25a3.393 3.393 0 00-3.375 3.375v5.625h-1.125c-.123 0-.233-.033-.343-.066a1.169 1.169 0 01-.27-.13c-.02-.013-.042-.025-.061-.04a1.093 1.093 0 01-.194-.182 1.048 1.048 0 01-.092-.14c-.033-.055-.065-.107-.088-.168a1.168 1.168 0 01-.077-.4V20.753zm2.255 3.37a1.125 1.125 0 000 2.25h2.25a1.125 1.125 0 000-2.25h-2.25zm6.74 0a1.126 1.126 0 000 2.25h2.253a1.125 1.125 0 000-2.25h-2.252zm-6.74 4.503a1.126 1.126 0 100 2.25h8.993a1.125 1.125 0 100-2.25h-8.993zM16.25 29.75H23v16.875c0 .396.083.771.211 1.125h-6.96l-.001-18zm24.75.004h6.75V47.75h-6.96c.127-.354.21-.73.21-1.125v-16.87zm-22.614 3.371a1.128 1.128 0 00.116 2.252h2.25a1.126 1.126 0 000-2.252h-2.25a1.132 1.132 0 00-.116 0zm9.002 0a1.128 1.128 0 10.117 2.252h8.993a1.126 1.126 0 000-2.252h-8.993a1.134 1.134 0 00-.117 0zm15.752 0a1.127 1.127 0 00.108 2.252H45.5a1.127 1.127 0 000-2.252h-2.252a1.077 1.077 0 00-.108 0zm-24.754 4.502a1.127 1.127 0 00.116 2.25h2.25a1.126 1.126 0 000-2.25h-2.25a1.132 1.132 0 00-.116 0zm24.754 0a1.127 1.127 0 00.108 2.25H45.5a1.126 1.126 0 000-2.25h-2.252a1.077 1.077 0 00-.108 0zM30.875 41h2.25c.643 0 1.125.483 1.125 1.125v5.625h-4.5v-5.625A1.1 1.1 0 0130.875 41z"/></svg><svg viewBox="0 0 64 64" id="popular-5" xmlns="http://www.w3.org/2000/svg"><path d="M28.624 14c-1.851 0-3.303 1.535-3.373 3.331v4.542h-2.25c-1.85 0-3.38 1.529-3.38 3.38v16.874c0 1.46.956 2.701 2.266 3.166-.005.07-.015.137-.015.207v1.13c0 1.85 1.529 3.37 3.38 3.37 1.85 0 3.372-1.52 3.372-3.37V45.5h6.752v1.13c0 1.85 1.52 3.37 3.37 3.37 1.851 0 3.38-1.52 3.38-3.37V45.5c0-.07-.01-.137-.015-.207 1.31-.465 2.268-1.706 2.267-3.166V25.252c0-1.85-1.53-3.38-3.381-3.38h-2.25V17.37c0-1.85-1.52-3.37-3.37-3.37h-6.753zm0 2.25h6.752c.643 0 1.12.478 1.12 1.12v4.503h-8.992v-4.46c.033-.688.483-1.163 1.12-1.163zM23 24.122h17.996c.642 0 1.13.487 1.13 1.13v16.875c0 .643-.488 1.12-1.13 1.12H23c-.643 0-1.13-.477-1.13-1.12V25.252c0-.643.487-1.13 1.13-1.13zm3.355 3.364a1.125 1.125 0 00-1.105 1.139v10.122a1.126 1.126 0 102.252 0V28.625a1.125 1.125 0 00-1.147-1.139zm5.623 0a1.126 1.126 0 00-1.105 1.139v10.122a1.125 1.125 0 102.25 0V28.625a1.125 1.125 0 00-1.145-1.139zm5.63 0a1.126 1.126 0 00-1.112 1.139v10.122a1.125 1.125 0 002.25 0V28.625a1.126 1.126 0 00-1.139-1.139zM24.12 45.5h2.25v1.13a1.09 1.09 0 01-1.12 1.12c-.643 0-1.13-.478-1.13-1.12V45.5zm13.505 0h2.25v1.13c0 .642-.487 1.12-1.13 1.12-.642 0-1.12-.478-1.12-1.12V45.5z"/></svg><svg viewBox="0 0 64 64" id="popular-6" xmlns="http://www.w3.org/2000/svg"><path fill-rule="evenodd" clip-rule="evenodd" d="M15.368 41.504a2.469 2.469 0 01.687-3.424l2.018-1.343a2.469 2.469 0 013.424.686l5.62 8.441a2.469 2.469 0 01-.687 3.424l-2.018 1.344a2.469 2.469 0 01-3.423-.687l-5.62-8.441zm1.91-1.587a.263.263 0 00-.073.364l5.62 8.441c.08.12.244.154.364.073l2.019-1.344a.263.263 0 00.073-.364l-5.62-8.441a.263.263 0 00-.365-.073l-2.018 1.344zm14.373-4.531c0-.61.494-1.103 1.104-1.103h5.5a2.469 2.469 0 012.47 2.469v1.494a2.469 2.469 0 01-2.47 2.469h-4.972a1.103 1.103 0 110-2.206h4.973a.263.263 0 00.262-.263v-1.494a.263.263 0 00-.262-.263h-5.502a1.103 1.103 0 01-1.103-1.103z"/><path fill-rule="evenodd" clip-rule="evenodd" d="M24.46 36.194c-.827.769-1.42 1.707-1.864 2.418a1.103 1.103 0 01-1.87-1.169l.015-.025c.438-.7 1.162-1.859 2.216-2.84 1.082-1.006 2.57-1.88 4.514-1.88 1.712 0 2.995.287 3.971.672.974.385 1.597.852 1.969 1.13l.005.004a1.103 1.103 0 11-1.324 1.765c-.334-.25-.766-.573-1.46-.847-.697-.275-1.702-.517-3.16-.517-1.225 0-2.202.535-3.013 1.29zm21.996-1.591a2.47 2.47 0 012.372.398l.57.455a2.469 2.469 0 01-.197 3.998l-8.64 5.616c-.4.26-.867.399-1.345.399H28.85c-.04 0-.08.01-.117.028l-1.825.912a1.103 1.103 0 11-.986-1.973l1.824-.913a2.47 2.47 0 011.104-.26h10.366c.05 0 .1-.015.143-.043l8.64-5.616a.263.263 0 00.02-.425l-.569-.456a.262.262 0 00-.252-.042l-6.678 2.385a1.103 1.103 0 11-.742-2.078l6.678-2.385zM30.028 13.909c.593-2.545 4.217-2.545 4.81 0l.636 2.736c.03.127.149.213.279.202l2.798-.24c2.605-.222 3.724 3.224 1.487 4.574l-2.406 1.452a.263.263 0 00-.106.327l1.093 2.588c1.017 2.407-1.915 4.537-3.89 2.827l-2.124-1.84a.263.263 0 00-.344 0l-2.124 1.84c-1.976 1.71-4.907-.42-3.89-2.827l1.092-2.588a.263.263 0 00-.106-.327l-2.405-1.452c-2.238-1.35-1.118-4.796 1.486-4.573l2.799.24a.263.263 0 00.278-.203l.637-2.736zm2.236.347c-.026.02-.065.056-.087.153l-.637 2.736a2.469 2.469 0 01-2.615 1.9l-2.8-.24c-.099-.008-.146.017-.172.036a.287.287 0 00-.1.145.288.288 0 00-.005.176c.01.031.034.079.12.13l2.405 1.452a2.469 2.469 0 01.999 3.074l-1.093 2.588c-.039.092-.03.144-.02.176a.288.288 0 00.107.139c.06.043.121.059.166.059.033 0 .085-.008.16-.073l2.124-1.84a2.469 2.469 0 013.233 0l2.123 1.84c.076.065.129.073.162.073a.288.288 0 00.165-.06.287.287 0 00.107-.138c.01-.032.02-.084-.02-.176l-1.092-2.588a2.469 2.469 0 01.998-3.074l2.406-1.452c.085-.051.109-.099.119-.13a.287.287 0 00-.005-.176.287.287 0 00-.1-.145c-.026-.019-.073-.044-.172-.035l-2.8.24a2.469 2.469 0 01-2.614-1.9l-.638-2.737c-.022-.097-.06-.134-.087-.153a.287.287 0 00-.168-.05.288.288 0 00-.169.05z"/></svg><svg viewBox="0 0 488.025 488.025" id="popular-7" xmlns="http://www.w3.org/2000/svg"><path d="M132.029 244.562h-19.8c-5.5 0-10 4.5-10 10s4.5 10 10 10h19.8c5.5 0 10-4.5 10-10s-4.5-10-10-10zm70.8 0h-19.8c-5.5 0-10 4.5-10 10s4.5 10 10 10h19.8c5.6 0 10-4.5 10-10s-4.5-10-10-10zm71.7 0h-19.8c-5.5 0-10 4.5-10 10s4.5 10 10 10h19.8c5.5 0 10-4.5 10-10s-4.5-10-10-10zm70.9 0h-19.8c-5.5 0-10 4.5-10 10s4.5 10 10 10h19.8c5.5 0 10-4.5 10-10s-4.5-10-10-10zm-167.7-62.9h-20.6c-5.5 0-10 4.5-10 10s4.5 10 10 10h20.6c5.5 0 10-4.5 10-10s-4.5-10-10-10zm70.9 0h-19.8c-5.5 0-10 4.5-10 10s4.5 10 10 10h19.8c5.5 0 10-4.5 10-10s-4.5-10-10-10z"/><path d="M487.529 282.862c-1.4-4-5.2-6.8-9.5-6.8h-61.2l-42.8-58.8c-1.9-2.6-4.9-4.1-8.1-4.1h-45.6l-37.4-58.3c-1.8-2.9-5-4.6-8.4-4.6h-35.7v-42.7c0-5.5-4.5-10-10-10h-51.1c-5.5 0-10 4.5-10 10v42.7h-45.7c-3.8 0-7.3 2.2-9 5.6l-27.8 57.3h-14.2c-3.4 0-6.6 1.7-8.4 4.6l-37.4 58.3h-15.2c-3.4 0-6.5 1.7-8.4 4.5-1.9 2.8-2.1 6.4-.8 9.5l41.2 94.4c1.6 3.6 5.2 6 9.2 6h304.8c2.2 0 4.4-.7 6.1-2.1l122-94.4c3.4-2.6 4.7-7.1 3.4-11.1zm-299.8-165.4h31.1v32.7h-31.1v-32.7zm-59.4 52.7h140.7l27.6 42.9h-189.1l20.8-42.9zm-51.9 63h284.4l31.2 42.9h-343.1l27.5-42.9zm276.2 137.3h-294.9l-32.4-74.4h423.5l-96.2 74.4z"/></svg><svg viewBox="0 0 64 64" id="popular-8" xmlns="http://www.w3.org/2000/svg"><path d="M30.477 28.62h10.326c.282 0 .544-.15.687-.396a.798.798 0 00.011-.794l-2.954-5.382a.8.8 0 00-.7-.416h-7.37a.8.8 0 00-.8.8v5.382a.8.8 0 00.8.805zm.8-5.382h6.102l2.075 3.781h-8.177v-3.781zM18.68 28.62h7.633a.8.8 0 00.8-.8v-5.382a.8.8 0 00-.8-.8H18.68a.8.8 0 00-.8.8v5.381a.8.8 0 00.8.8zm.8-5.382h6.032v3.781H19.48v-3.781z"/><path d="M10.488 32.544h1.423v2.747a3.403 3.403 0 003.398 3.397h1.019a4.53 4.53 0 004.453 3.728 4.53 4.53 0 004.453-3.728h12.39a4.53 4.53 0 004.453 3.728 4.53 4.53 0 004.453-3.728h3.114c.63 0 1.126-.181 1.473-.533.592-.603.576-1.472.56-2.395 0-.149-.006-.309-.006-.469 0-.032 0-.064-.005-.101l-.853-6.891a.803.803 0 00-.603-.678l-4.384-1.082-4.378-8.118a.806.806 0 00-.704-.421H15.309a3.403 3.403 0 00-3.397 3.398v1.62h-1.424c-.822 0-1.488.667-1.488 1.488v6.55c0 .821.666 1.488 1.488 1.488zm10.298 8.277a2.93 2.93 0 01-2.928-2.928 2.93 2.93 0 012.928-2.928 2.929 2.929 0 010 5.856zm21.297 0a2.93 2.93 0 01-2.928-2.928 2.93 2.93 0 012.928-2.928 2.93 2.93 0 012.927 2.928 2.93 2.93 0 01-2.927 2.928zm-28.571-9.077V21.402c0-.992.805-1.797 1.797-1.797h24.96l4.32 8.01a.797.797 0 00.513.395l4.192 1.035.784 6.298c0 .15.005.299.005.443.005.421.022 1.125-.101 1.248-.011.01-.102.053-.331.053h-3.11a4.536 4.536 0 00-4.458-3.728 4.536 4.536 0 00-4.459 3.728h-12.38a4.535 4.535 0 00-4.458-3.727 4.536 4.536 0 00-4.458 3.728h-1.019a1.798 1.798 0 01-1.797-1.798v-3.546zm-2.912-7.12h1.312v6.32H10.6v-6.32zM53.245 43.416h-43.21a.8.8 0 100 1.6h43.21a.8.8 0 100-1.6z"/></svg><svg viewBox="0 0 24 24" id="right-arrow" xmlns="http://www.w3.org/2000/svg"><path fill-rule="evenodd" clip-rule="evenodd" d="M14.793 6.793a1 1 0 011.414 0l4.5 4.5a1 1 0 010 1.414l-4.5 4.5a1 1 0 01-1.414-1.414L17.586 13H4a1 1 0 110-2h13.586l-2.793-2.793a1 1 0 010-1.414z"/></svg><svg class="qicon-star" viewBox="0 0 256 256" id="star" xmlns="http://www.w3.org/2000/svg"><path d="M127.998 6.265L90.937 89.838 0 99.262l68.03 61.075-19.139 89.397L128 203.908l79.108 45.826-19.137-89.397L256 99.262l-90.937-9.424-37.065-83.573z" stroke-miterlimit="10" font-family="none" font-weight="none" font-size="none" text-anchor="none"/></svg><svg viewBox="0 0 24 24" id="to-top" xmlns="http://www.w3.org/2000/svg"><path fill-rule="evenodd" clip-rule="evenodd" d="M4.293 15.707a1 1 0 010-1.414l7-7a1 1 0 011.414 0l7 7a1 1 0 01-1.414 1.414L12 9.414l-6.293 6.293a1 1 0 01-1.414 0z"/></svg><svg viewBox="0 0 24 24" id="user" xmlns="http://www.w3.org/2000/svg"><path fill-rule="evenodd" clip-rule="evenodd" d="M19.5 21s1.5 0 1.5-1.5-1.5-6-9-6-9 4.5-9 6S4.5 21 4.5 21h15zM4.508 19.584v-.003.003zm.025-.084h14.934a.379.379 0 00.021-.003l.012-.003c-.002-.369-.231-1.479-1.248-2.496C17.274 16.02 15.434 15 12 15c-3.435 0-5.274 1.02-6.252 1.998-1.017 1.017-1.245 2.127-1.248 2.496l.033.006zm14.961.084v-.003.003zM12 10.5a3 3 0 100-6 3 3 0 000 6zm4.5-3a4.5 4.5 0 11-9 0 4.5 4.5 0 019 0z"/></svg></svg>