<svg class="dm-social__svg" viewBox="0 0 66 65" fill="none" xmlns="http://www.w3.org/2000/svg">
      <path d="M32.6699 64C50.0669 64 64.1699 49.897 64.1699 32.5C64.1699 15.103 50.0669 1 32.6699 1C15.273 1 1.16992 15.103 1.16992 32.5C1.16992 49.897 15.273 64 32.6699 64Z" stroke="#4A4A4A" stroke-width="2"></path>
      <path d="M13.1699 20.5803H19.8499C20.0699 31.5003 24.9899 36.1303 28.8899 37.0803V20.5803H35.1699V30.0003C39.0199 29.5903 43.0599 25.3003 44.4299 20.5803H50.7099C50.1999 23.0303 49.1699 25.3503 47.6999 27.3903C46.2299 29.4303 44.3399 31.1603 42.1599 32.4603C44.5999 33.6403 46.7499 35.3203 48.4799 37.3803C50.2099 39.4403 51.4699 41.8303 52.1799 44.4103H45.2599C44.6199 42.1803 43.3299 40.1803 41.5299 38.6603C39.7399 37.1503 37.5199 36.1803 35.1799 35.8903V44.4003H34.4199C21.0899 44.4003 13.4899 35.4503 13.1799 20.5703L13.1699 20.5803Z" fill="#4A4A4A"></path>
    </svg>