<svg xmlns="http://www.w3.org/2000/svg" width="62" height="17" viewBox="21 0 62 17" fill="none">
	<path d="M74 12.859L78.944 16L77.632 10.08L82 6.09684L76.248 5.58316L74 0L71.752 5.58316L66 6.09684L70.368 10.08L69.056 16L74 12.859Z" fill="#ffe733"/>
	<path d="M52 12.859L56.944 16L55.632 10.08L60 6.09684L54.248 5.58316L52 0L49.752 5.58316L44 6.09684L48.368 10.08L47.056 16L52 12.859Z" fill="#ffe733"/>
	<path d="M30 12.859L34.944 16L33.632 10.08L38 6.09684L32.248 5.58316L30 0L27.752 5.58316L22 6.09684L26.368 10.08L25.056 16L30 12.859Z" fill="#ffe733"/>
</svg>
