<svg xmlns="http://www.w3.org/2000/svg" xmlns:xlink="http://www.w3.org/1999/xlink" width="60" height="60" viewBox="0 0 60 60">
    <defs>
        <path id="a" d="M0 0h60v60H0z"/>
    </defs>
    <g fill="none" fill-rule="evenodd">
        <mask id="b" fill="#fff">
            <use xlink:href="#a"/>
        </mask>
        <path fill="#979797" fill-rule="nonzero" d="M9 51h42V28.474L30 11.292 9 28.474V51zm7 0v2H7V27.526L30 8.708l23 18.818V53H29h-.002A1 1 0 1 1 29 53v-2h-5.002a1 1 0 0 1 0 2h-3a1 1 0 1 1 0-2H16a1 1 0 1 1-.003 2A1 1 0 0 1 16 51z" mask="url(#b)"/>
        <path fill="#FFF" fill-rule="nonzero" d="M44.49 27.82a1.92 1.92 0 0 1 2.65-.73L50 22l-13.46-8-2.85 5.09a2 2 0 0 1 .71 2.73 1.92 1.92 0 0 1-2.66.74L21 41.71l13.46 8L45.2 30.56a2 2 0 0 1-.71-2.74z" mask="url(#b)"/>
        <path fill="#00AC00" fill-rule="nonzero" d="M45.366 28.303a1 1 0 0 0 .34 1.395 1 1 0 0 1 .366 1.351L35.332 50.2a1 1 0 0 1-1.383.37l-13.46-8a1 1 0 0 1-.361-1.348l10.74-19.15a1 1 0 0 1 1.378-.373.92.92 0 0 0 1.29-.382 1 1 0 0 0-.355-1.365 1 1 0 0 1-.364-1.35l2.85-5.09a1 1 0 0 1 1.384-.37l13.46 8a1 1 0 0 1 .36 1.349l-2.86 5.09a1 1 0 0 1-1.376.373.92.92 0 0 0-1.27.35zm.03-2.37a2.92 2.92 0 0 1 1.281-.061l1.973-3.511-11.739-6.977-1.951 3.485c.802.942.966 2.32.319 3.428a2.92 2.92 0 0 1-3.076 1.483l-9.854 17.569 11.74 6.977 9.84-17.545a3 3 0 0 1-.308-3.457 2.92 2.92 0 0 1 1.775-1.392z" mask="url(#b)"/>
        <path fill="#00AC00" fill-rule="nonzero" d="M36.716 22.763h2v2h-2z" mask="url(#b)" transform="rotate(30 37.716 23.763)"/>
        <path fill="#00AC00" fill-rule="nonzero" d="M40.166 24.816h2v2h-2z" mask="url(#b)" transform="rotate(30 41.166 25.816)"/>
        <path fill="#FFF" fill-rule="nonzero" d="M15.67 24.82a2 2 0 0 0-2.73-.73L10 19l13.86-8 2.94 5.09a2.003 2.003 0 0 0 2 3.47l11.06 19.15-13.86 8-11.06-19.15a2 2 0 0 0 .73-2.74z" mask="url(#b)"/>
        <path fill="#00AC00" fill-rule="nonzero" d="M16.84 26.6a3 3 0 0 1-.62 1.178l10.146 17.566 12.128-7-10.145-17.566a3.004 3.004 0 0 1-2.83-4.907l-2.025-3.505-12.128 7 2.025 3.506a3.001 3.001 0 0 1 3.144 1.446 3 3 0 0 1 .306 2.281zm-2.034-1.277a1 1 0 0 0-1.366-.367 1 1 0 0 1-1.366-.366l-2.94-5.09a1 1 0 0 1 .366-1.366l13.86-8a1 1 0 0 1 1.366.366l2.94 5.09a1 1 0 0 1-.367 1.366 1.003 1.003 0 0 0 1.002 1.738 1 1 0 0 1 1.365.366l11.06 19.15a1 1 0 0 1-.366 1.366l-13.86 8a1 1 0 0 1-1.366-.366l-11.06-19.15a1 1 0 0 1 .367-1.367 1 1 0 0 0 .365-1.37z" mask="url(#b)"/>
        <path fill="#00AC00" fill-rule="nonzero" d="M18.115 21.816h2v2h-2z" mask="url(#b)" transform="rotate(-30 19.115 22.816)"/>
        <path fill="#00AC00" fill-rule="nonzero" d="M21.586 19.819h2v2h-2z" mask="url(#b)" transform="rotate(-30 22.586 20.819)"/>
        <path fill="#FFF" fill-rule="nonzero" d="M8 28v24l24-8S12.08 28 8 28z" mask="url(#b)"/>
        <path fill="#FFF" fill-rule="nonzero" d="M52 28c-4 0-24 16-24 16l24 8V28z" mask="url(#b)"/>
        <path fill="#979797" fill-rule="nonzero" d="M7 28a1 1 0 0 1 1-1c1.927 0 6.062 2.442 12.217 6.822.62.441 1.255.898 1.902 1.37a301.803 301.803 0 0 1 7.318 5.518A320.519 320.519 0 0 1 32.4 43.04l.227.181a1 1 0 0 1-.31 1.729l-24 8A1 1 0 0 1 7 52V28zm2 1.246v21.367l20.931-6.978c-.533-.42-1.109-.87-1.72-1.345a299.85 299.85 0 0 0-7.27-5.482c-.641-.467-1.27-.92-1.883-1.356C14.47 32.188 10.872 29.959 9 29.246z" mask="url(#b)"/>
        <path fill="#979797" fill-rule="nonzero" d="M52 27a1 1 0 0 1 1 1v24a1 1 0 0 1-1.316.949l-24-8a1 1 0 0 1-.309-1.73l.228-.182.645-.51c.696-.548 1.477-1.16 2.327-1.818a309.33 309.33 0 0 1 7.337-5.518c.63-.459 1.25-.904 1.854-1.334C45.96 29.453 50.1 27 52 27zm-11.075 8.487a212.7 212.7 0 0 0-1.837 1.322A307.378 307.378 0 0 0 31.8 42.29c-.614.475-1.192.926-1.728 1.346L51 50.613V29.252c-1.865.723-5.474 2.963-10.075 6.235z" mask="url(#b)"/>
        <path fill="#FFF" fill-rule="nonzero" d="M52 52H8s20.08-12 22-12c2.08 0 22 12 22 12z" mask="url(#b)"/>
        <path fill="#979797" fill-rule="nonzero" d="M41.283 46.868l-.865-.494c-2.75-1.565-5.097-2.856-6.913-3.793C31.585 41.591 30.219 41 30 41c-.182 0-1.554.605-3.467 1.596-1.824.945-4.19 2.246-6.966 3.822l-.792.45a620.44 620.44 0 0 0-7.1 4.119c-.005.003 12.226.007 36.695.013a567.08 567.08 0 0 0-7.087-4.132zM16.998 53H8c-1.015 0-1.384-1.338-.513-1.858l.87-.518A682.438 682.438 0 0 1 18.58 44.68C25.163 40.942 28.912 39 30 39c1.15 0 4.922 1.944 11.407 5.636l.87.496a567.837 567.837 0 0 1 9.376 5.494l.863.517c.868.523.497 1.857-.516 1.857H27.998a1 1 0 1 1 0-2h-4a1 1 0 0 1 0 2h-3a1 1 0 1 1 0-2h-4a1 1 0 0 1 0 2z" mask="url(#b)"/>
    </g>
</svg>
