<svg class="dm-social__svg" viewBox="0 0 66 65" fill="none" xmlns="http://www.w3.org/2000/svg">
      <path d="M32.8301 64C50.227 64 64.3301 49.897 64.3301 32.5C64.3301 15.103 50.227 1 32.8301 1C15.4331 1 1.33008 15.103 1.33008 32.5C1.33008 49.897 15.4331 64 32.8301 64Z" stroke="#4A4A4A" stroke-width="2"></path>
      <path d="M46.9098 20.9504C46.4198 26.0904 44.3398 38.5504 43.2898 44.3204C42.8398 46.7504 41.9598 47.5704 41.0998 47.6504C39.2498 47.8204 37.8398 46.4004 36.0498 45.2004C33.2398 43.3304 31.6498 42.1604 28.9298 40.3304C25.7798 38.2104 27.8198 37.0504 29.6198 35.1504C30.0898 34.6504 38.2598 27.0904 38.4098 26.4004C38.4298 26.3104 38.4498 25.9904 38.2598 25.8304C38.0698 25.6704 37.7998 25.7204 37.5998 25.7604C37.3198 25.8204 32.8298 28.8404 24.1398 34.8204C22.8698 35.7104 21.7098 36.1404 20.6798 36.1204C19.5398 36.1004 17.3498 35.4604 15.7198 34.9204C13.7198 34.2604 12.1298 33.9104 12.2698 32.7904C12.3398 32.2004 13.1298 31.6104 14.6398 30.9904C23.9398 26.8604 30.1498 24.1404 33.2498 22.8304C42.1098 19.0804 43.9598 18.4204 45.1598 18.4004C45.4198 18.4004 46.0098 18.4604 46.3998 18.7804C46.6498 19.0104 46.8198 19.3204 46.8498 19.6604C46.9198 20.0804 46.9398 20.5104 46.9198 20.9304L46.9098 20.9504Z" fill="#4A4A4A"></path>
    </svg>