<svg height="40" width="80" viewBox="115 200 310 90" xmlns="http://www.w3.org/2000/svg">
				<g xmlns="http://www.w3.org/2000/svg" fill="#3f71b5" id="shape-svg">
					<title>Forma</title>
					<g id="Слой_2" data-name="Слой 2">
						<g id="Слой_1-2" data-name="Слой 1">
							<path transform="translate(184, 221) scale(0.6,0.6)"
								d="M59.06,2.53C44.7,2.53,14.25,2.53,0,1.44,14.15.72,44.5.28,59.06.28Z"></path>
							<path transform="translate(184, 221) scale(0.6,0.6)"
								d="M219.19,2.25c14.37,0,44.82,0,59.07-1.09C264.1.44,233.76,0,219.19,0Z"></path>
						</g>
					</g>
				</g>
				<g xmlns="http://www.w3.org/2000/svg" fill="#7ed321" id="icon-svg">
					<path transform="translate(217.25, 169.25) scale(0.55,0.55)"
						d="M 83.330 4.414 C 34.318 13.769, 0.433 56.544, 3.312 105.426 C 5.828 148.140, 34.327 182.566, 76.825 194.226 C 87.875 197.258, 112.125 197.258, 123.175 194.226 C 159.293 184.316, 184.361 159.245, 194.217 123.175 C 197.010 112.957, 197.286 88.942, 194.728 78.763 C 190.151 60.549, 180.778 43.789, 168.210 31.345 C 155.721 18.979, 140.721 10.468, 123.408 5.923 C 113.185 3.240, 93.389 2.494, 83.330 4.414 M 80.500 11.660 C 57.350 16.610, 35.461 32.337, 22.807 53.110 C 14.013 67.549, 10 82.184, 10 99.821 C 10 109.164, 11.227 120.560, 12.354 121.687 C 12.540 121.874, 14.433 121.299, 16.561 120.410 C 23.131 117.665, 31.260 118.800, 38.925 123.533 C 47.721 128.964, 52.080 128.958, 61.264 123.500 C 67.364 119.875, 68.188 118.988, 70.065 114.032 C 75.036 100.903, 78.633 84.864, 80.502 67.500 L 81.148 61.500 69.808 72.750 C 62.424 80.076, 57.719 84, 56.320 84 C 54.892 84, 52.917 82.293, 50.437 78.914 L 46.703 73.827 34.987 85.513 C 21.337 99.128, 19.388 99.822, 19.680 90.965 C 19.941 83.016, 22.609 71.320, 25.515 65.380 C 26.905 62.538, 30.308 58.027, 33.077 55.356 C 35.846 52.685, 41.022 46.598, 44.579 41.828 C 49.701 34.960, 52.121 32.620, 56.219 30.578 C 67.935 24.740, 81.896 29.786, 87.222 41.785 L 89.124 46.069 96.118 38.581 C 105.946 28.057, 111.377 25.510, 124 25.504 C 132.319 25.501, 134.184 25.837, 139 28.213 C 146.149 31.740, 166.418 51.748, 165.435 54.309 C 164.591 56.508, 162.039 56.442, 153.500 54 C 149.654 52.900, 144.772 52, 142.653 52 L 138.799 52 143.829 57.503 C 149.770 64.003, 152.112 69.718, 154.539 83.630 C 157.545 100.862, 155.636 101.095, 139.914 85.414 L 128.297 73.827 124.563 78.914 C 122.087 82.288, 120.107 84, 118.685 84 C 117.333 84, 113.244 80.762, 107.633 75.250 C 102.734 70.438, 99.050 67.400, 99.446 68.500 C 102.614 77.308, 104.312 89.471, 104.403 104 C 104.456 112.525, 104.159 121.400, 103.743 123.721 C 102.844 128.733, 103.383 128.690, 111.913 123.068 C 116.922 119.767, 117.893 119.500, 124.913 119.500 C 132.027 119.500, 132.901 119.749, 138.925 123.500 C 147.734 128.984, 152.236 128.991, 161.075 123.533 C 168.740 118.800, 176.869 117.665, 183.439 120.410 C 185.567 121.299, 187.465 121.869, 187.657 121.676 C 189.122 120.211, 190.140 107.457, 189.708 96 C 189.139 80.958, 187.401 73.589, 181.482 61.125 C 176.553 50.745, 170.475 42.588, 161.211 33.921 C 149.006 22.502, 134.202 14.701, 118.792 11.567 C 109.108 9.598, 89.925 9.644, 80.500 11.660 M 118.147 32.038 C 115.752 32.529, 111.927 34.033, 109.647 35.380 C 104.770 38.261, 97.340 45.725, 100.500 44.569 C 104.701 43.032, 116.858 42.727, 121.672 44.037 C 124.327 44.760, 131.797 45.410, 138.270 45.481 L 150.041 45.610 145.362 40.860 C 137.965 33.350, 127.806 30.057, 118.147 32.038 M 59.500 35.963 C 58.400 36.423, 56.058 38.307, 54.296 40.150 L 51.092 43.500 61.796 43.515 C 70.652 43.527, 73.320 43.906, 77.250 45.709 C 82.567 48.148, 83.155 47.407, 80.005 42.241 C 77.095 37.467, 72.444 34.996, 66.500 35.067 C 63.750 35.100, 60.600 35.503, 59.500 35.963 M 55.344 50 C 45.821 51.979, 35.864 59.508, 31.540 68 C 29.443 72.119, 26.516 82.849, 27.281 83.615 C 27.459 83.792, 31.621 79.901, 36.531 74.969 C 41.441 70.036, 46.217 66, 47.144 66 C 48.071 66, 50.510 68.288, 52.563 71.085 L 56.296 76.171 67.148 65.353 C 73.117 59.402, 78 54.238, 78 53.876 C 78 52.636, 70.468 50.202, 64.982 49.669 C 61.967 49.376, 57.630 49.525, 55.344 50 M 108 49.630 C 104.245 50.291, 97 53.070, 97 53.850 C 97 54.226, 101.850 59.369, 107.778 65.279 L 118.556 76.023 122.297 71.012 C 124.355 68.255, 126.809 66, 127.751 66 C 128.692 66, 133.664 70.162, 138.799 75.250 L 148.135 84.500 147.433 80.500 C 145.219 67.875, 137.540 57.291, 127.291 52.737 C 121.555 50.188, 112.823 48.782, 108 49.630 M 87.641 59.210 C 87.303 60.470, 86.994 63.750, 86.954 66.500 C 86.914 69.250, 86.529 73.638, 86.099 76.250 L 85.317 81 89.659 81 C 93.954 81, 94 81.037, 94 84.500 L 94 88 89.083 88 L 84.166 88 83.083 93.049 C 82.487 95.826, 82 98.526, 82 99.049 C 82 99.572, 84.700 100, 88 100 L 94 100 94 103 L 94 106 86.975 106 C 79.418 106, 79.740 105.770, 77.579 112.709 C 76.912 114.850, 77.144 114.926, 85.196 115.209 L 93.500 115.500 93.813 118.750 L 94.127 122 84.101 122 L 74.076 122 72.220 126.250 L 70.364 130.500 79.242 130.788 L 88.121 131.077 87.810 134.288 L 87.500 137.500 76.934 137.782 L 66.367 138.064 64.265 142.391 L 62.163 146.717 68.332 148.405 C 71.724 149.334, 77.137 151.706, 80.361 153.676 C 87.179 157.844, 86.585 158.270, 91.069 146 C 97.728 127.781, 99.863 103.899, 96.532 84.881 C 95.360 78.185, 89.650 58.487, 88.512 57.210 C 88.370 57.051, 87.978 57.951, 87.641 59.210 M 18.276 126.962 L 14.052 128.879 15.624 132.690 C 18.167 138.852, 23.821 149.273, 26.300 152.366 L 28.597 155.232 34.650 152.177 C 37.979 150.496, 43.807 148.496, 47.601 147.733 L 54.500 146.345 58.705 138.961 C 61.018 134.900, 62.747 131.414, 62.548 131.215 C 62.349 131.015, 60.816 131.561, 59.143 132.426 C 54.248 134.957, 44.353 134.493, 39.500 131.504 C 28.219 124.556, 25.063 123.881, 18.276 126.962 M 119.030 126.583 C 117.121 127.411, 114.760 128.813, 113.782 129.697 C 112.805 130.582, 109.697 132.087, 106.877 133.042 L 101.750 134.777 99.019 143.139 C 97.517 147.737, 95.173 153.975, 93.811 157 L 91.334 162.500 94.653 167 C 98.352 172.015, 101.399 179.325, 102.468 185.750 C 103.158 189.891, 103.275 190, 107.023 190 C 112.291 190, 123.251 187.602, 131.248 184.699 C 146.918 179.011, 163.771 166.186, 173.511 152.536 C 178.240 145.909, 185 132.583, 185 129.887 C 185 128.069, 178.490 124.985, 174.730 125.022 C 172.363 125.045, 167.077 127.453, 160.500 131.504 C 154.824 134.999, 145.176 134.999, 139.500 131.504 C 128.593 124.786, 125.106 123.948, 119.030 126.583 M 48.045 154.092 C 45.595 154.573, 41.166 156.152, 38.203 157.601 L 32.816 160.237 37.158 164.710 C 49.904 177.841, 71.048 187.941, 89.403 189.667 L 96.306 190.316 95.757 186.225 C 94.398 176.094, 85.725 163.889, 76.199 158.705 C 67.027 153.713, 57.742 152.192, 48.045 154.092"
						stroke="none" fill-rule="evenodd"></path>
				</g>
				<path xmlns="http://www.w3.org/2000/svg" id="SvgjsPath9468729"
					d="M-0.70-46.20L4.14-46.11Q6.78-46.11 8.89-46.29L8.89-46.29L9.33-46.29Q10.21-46.29 10.21-45.23L10.21-45.23Q10.12-43.38 10.30-22.79L10.30-22.79Q10.38-12.94 10.38-2.02L10.38-2.02Q10.38-0.88 10.78-0.40Q11.18 0.09 12.14 0.09L12.14 0.09Q15.40 0.09 16.72 0L16.72 0Q18.57-0.09 19.14-0.57Q19.71-1.06 19.71-2.73L19.71-2.73L19.71-30.45L19.71-45.41Q19.71-45.67 19.93-45.85Q20.15-46.02 20.33-46.02L20.33-46.02L27.63-46.02Q29.39-46.02 30.05-46.20Q30.71-46.38 30.71-46.99L30.71-46.99L30.80-54.30Q30.80-54.91 30.18-55.09Q29.57-55.26 28.16-55.26L28.16-55.26L1.06-55.26Q0.26-55.26-0.48-54.74Q-1.23-54.21-1.14-53.15L-1.14-53.15Q-1.14-53.06-1.10-52.67Q-1.06-52.27-1.06-51.30L-1.06-51.30Q-1.06-46.20-0.70-46.20L-0.70-46.20ZM57.99-24.46Q58.26-24.64 58.83-24.82Q59.40-24.99 59.66-25.08L59.66-25.08Q61.69-26.14 63.58-27.46Q65.47-28.78 67.41-32.03Q69.34-35.29 69.34-40.30L69.34-40.30Q69.34-44.70 67.14-48.05Q64.94-51.39 61.47-53.24Q57.99-55.09 54.21-55.09L54.21-55.09Q52.27-55.26 48.31-55.26L48.31-55.26L41.89-55.18Q40.39-55.18 39.16-54.30Q37.93-53.42 37.93-51.74L37.93-51.74L37.84-2.29Q37.84-0.53 38.81-0.18L38.81-0.18Q39.34 0 41.18 0L41.18 0Q43.91 0 44.62-0.18L44.62-0.18Q45.76-0.35 46.11-0.70Q46.46-1.06 46.46-2.55L46.46-2.55Q46.46-21.56 46.55-23.32L46.55-23.32Q48.05-23.41 48.66-22.97Q49.28-22.53 49.81-21.47L49.81-21.47Q51.57-17.69 55.48-9.68Q59.40-1.67 59.93-0.79L59.93-0.79Q60.46 0.53 61.42 0.53L61.42 0.53Q61.95 0.53 62.48 0.26L62.48 0.26Q64.33-0.26 67.58-1.85L67.58-1.85Q68.73-2.46 68.73-3.08L68.73-3.08Q68.73-3.52 68.29-4.40L68.29-4.40L65.12-10.56Q59.14-21.82 57.99-24.46L57.99-24.46ZM46.64-34.85Q46.64-41.80 46.55-44.97L46.55-44.97Q46.55-46.46 47.96-46.46L47.96-46.46Q49.19-46.55 51.57-46.55L51.57-46.55Q54.65-46.38 57.29-45.28Q59.93-44.18 59.93-40.30L59.93-40.30Q59.93-37.66 58.34-35.90Q56.76-34.14 54.82-33.35Q52.89-32.56 52.18-32.56L52.18-32.56Q51.48-32.47 50.60-32.47L50.60-32.47Q50.16-32.47 49.63-32.52Q49.10-32.56 48.05-32.56L48.05-32.56Q47.26-32.56 46.95-32.96Q46.64-33.35 46.64-34.14L46.64-34.14L46.64-34.85ZM108.94-1.06L102.17 0.79Q101.99 0.88 101.64 0.88L101.64 0.88Q100.76 0.88 100.41 0.22Q100.06-0.44 100.06-0.79L100.06-0.79L97.94-12.23Q97.86-12.94 97.50-13.16Q97.15-13.38 96.45-13.29L96.45-13.29L92.31-13.38Q88-13.38 87.91-12.94L87.91-12.94L87.47-11Q87.30-10.12 86.20-5.37Q85.10-0.62 84.74-0.26L84.74-0.26Q84.30 0.18 81.31-0.79Q78.32-1.76 77.97-1.85L77.97-1.85Q75.24-2.55 75.77-4.49L75.77-4.49Q76.65-8.36 82.68-31.24Q88.70-54.12 89.14-54.56L89.14-54.56Q90.02-55.62 90.99-55.62L90.99-55.62L95.13-55.70Q96.45-55.70 97.06-55.62L97.06-55.62Q97.86-55.62 98.16-55.48Q98.47-55.35 98.74-54.82L98.74-54.82Q99.88-51.83 104.15-31.06Q108.42-10.30 109.74-2.73L109.74-2.73Q109.82-2.46 109.82-2.11L109.82-2.11Q109.82-1.32 108.94-1.06L108.94-1.06ZM89.94-22.35Q90.20-22.09 93.10-22.09L93.10-22.09Q94.78-22.09 95.39-22.18L95.39-22.18L95.48-22.18Q96.01-22.18 95.74-23.14L95.74-23.14Q95.39-26.14 94.73-31.42Q94.07-36.70 93.81-37.66L93.81-37.66Q93.72-37.75 93.68-38.06Q93.63-38.37 93.37-37.66L93.37-37.66Q92.66-34.94 91.26-28.78Q89.85-22.62 89.94-22.35L89.94-22.35ZM128.48-23.58L128.13-23.58L127.86-24.29Q126.63-29.04 124.21-38.32Q121.79-47.61 120.12-53.77L120.12-53.77Q119.59-55.70 117.83-55.26L117.83-55.26Q116.51-54.82 111.85-53.24L111.85-53.24Q110.79-52.98 111.14-51.92L111.14-51.92Q112.02-48.84 117.00-30.10Q121.97-11.35 124.52-1.41L124.52-1.41Q124.70-0.70 125.27-0.35Q125.84 0 126.46-0.18L126.46-0.18Q127.07-0.35 127.95-0.44Q128.83-0.53 129.18-0.53L129.18-0.53Q131.30-0.70 132.35-1.06L132.35-1.06Q132.88-1.14 133.06-2.02L133.06-2.02Q135.17-10.65 139.13-26.31Q143.09-41.98 145.64-51.74L145.64-51.74Q145.73-52.01 145.73-52.36L145.73-52.36Q145.73-53.33 144.67-53.59L144.67-53.59L138.25-55L137.90-55.09Q137.19-55.09 136.93-54.12L136.93-54.12L133.58-42.15Q129.10-25.34 128.48-23.58L128.48-23.58ZM179.78-46.55Q179.43-45.67 177.94-45.67L177.94-45.67Q176.79-45.67 176.18-45.76L176.18-45.76L171.16-45.76Q166.32-45.76 165-45.85L165-45.85L164.30-45.85Q163.42-45.85 163.24-45.54Q163.06-45.23 162.89-44L162.89-44Q162.80-41.71 162.80-35.73L162.80-35.73L167.20-35.73Q174.77-35.73 175.91-35.46L175.91-35.46Q177.06-35.29 177.06-33.18L177.06-33.18Q177.06-29.66 176.62-27.98L176.62-27.98Q176.26-27.54 175.25-27.37Q174.24-27.19 173.89-27.19L173.89-27.19L164.12-27.02Q162.98-27.02 162.98-25.87L162.98-25.87Q162.80-22.53 162.80-19.54L162.80-19.54Q162.80-15.84 162.89-12.89Q162.98-9.94 162.98-9.68L162.98-9.68Q164.30-9.77 177.76-9.77L177.76-9.77Q179.08-9.77 179.52-9.46Q179.96-9.15 179.96-8.62L179.96-8.62L179.70-1.41Q179.70-0.88 179.12-0.62Q178.55-0.35 177.76-0.35L177.76-0.35L153.91-0.26Q153.12-0.26 152.86-0.62Q152.59-0.97 152.59-1.67L152.59-1.67Q152.59-50.34 152.68-52.89L152.68-52.89Q152.68-53.50 153.25-54.21Q153.82-54.91 154.44-54.91L154.44-54.91L161.48-54.91L177.58-54.91Q180.14-54.91 180.14-52.36L180.14-52.36Q180.14-52.18 180.14-50.12Q180.14-48.05 179.78-46.55L179.78-46.55ZM198.44-9.06Q198.26-9.06 198-9.37Q197.74-9.68 197.74-10.03L197.74-10.03L197.65-28.07Q197.65-49.54 197.82-53.94L197.82-53.94Q197.82-54.65 197.56-54.91Q197.30-55.18 196.68-55.09L196.68-55.09Q195.98-55 194.48-55L194.48-55L189.90-55.09Q188.94-55.09 188.63-54.74Q188.32-54.38 188.32-53.50L188.32-53.50Q188.32-43.38 188.28-27.28Q188.23-11.18 188.14-2.55L188.14-2.55Q188.14-1.58 188.72-0.79Q189.29 0 189.90 0L189.90 0Q190.70 0.09 199.32 0.09L199.32 0.09Q213.05 0.09 213.93-0.18L213.93-0.18Q214.28-0.26 214.63-0.66Q214.98-1.06 214.98-1.41L214.98-1.41Q215.16-3.26 215.16-7.30L215.16-7.30Q215.16-8.27 214.72-8.67Q214.28-9.06 213.22-9.06L213.22-9.06L198.44-9.06ZM250.36-46.55Q250.01-45.67 248.51-45.67L248.51-45.67Q247.37-45.67 246.75-45.76L246.75-45.76L241.74-45.76Q236.90-45.76 235.58-45.85L235.58-45.85L234.87-45.85Q233.99-45.85 233.82-45.54Q233.64-45.23 233.46-44L233.46-44Q233.38-41.71 233.38-35.73L233.38-35.73L237.78-35.73Q245.34-35.73 246.49-35.46L246.49-35.46Q247.63-35.29 247.63-33.18L247.63-33.18Q247.63-29.66 247.19-27.98L247.19-27.98Q246.84-27.54 245.83-27.37Q244.82-27.19 244.46-27.19L244.46-27.19L234.70-27.02Q233.55-27.02 233.55-25.87L233.55-25.87Q233.38-22.53 233.38-19.54L233.38-19.54Q233.38-15.84 233.46-12.89Q233.55-9.94 233.55-9.68L233.55-9.68Q234.87-9.77 248.34-9.77L248.34-9.77Q249.66-9.77 250.10-9.46Q250.54-9.15 250.54-8.62L250.54-8.62L250.27-1.41Q250.27-0.88 249.70-0.62Q249.13-0.35 248.34-0.35L248.34-0.35L224.49-0.26Q223.70-0.26 223.43-0.62Q223.17-0.97 223.17-1.67L223.17-1.67Q223.17-50.34 223.26-52.89L223.26-52.89Q223.26-53.50 223.83-54.21Q224.40-54.91 225.02-54.91L225.02-54.91L232.06-54.91L248.16-54.91Q250.71-54.91 250.71-52.36L250.71-52.36Q250.71-52.18 250.71-50.12Q250.71-48.05 250.36-46.55L250.36-46.55ZM278.70-24.46Q278.96-24.64 279.53-24.82Q280.10-24.99 280.37-25.08L280.37-25.08Q282.39-26.14 284.28-27.46Q286.18-28.78 288.11-32.03Q290.05-35.29 290.05-40.30L290.05-40.30Q290.05-44.70 287.85-48.05Q285.65-51.39 282.17-53.24Q278.70-55.09 274.91-55.09L274.91-55.09Q272.98-55.26 269.02-55.26L269.02-55.26L262.59-55.18Q261.10-55.18 259.86-54.30Q258.63-53.42 258.63-51.74L258.63-51.74L258.54-2.29Q258.54-0.53 259.51-0.18L259.51-0.18Q260.04 0 261.89 0L261.89 0Q264.62 0 265.32-0.18L265.32-0.18Q266.46-0.35 266.82-0.70Q267.17-1.06 267.17-2.55L267.17-2.55Q267.17-21.56 267.26-23.32L267.26-23.32Q268.75-23.41 269.37-22.97Q269.98-22.53 270.51-21.47L270.51-21.47Q272.27-17.69 276.19-9.68Q280.10-1.67 280.63-0.79L280.63-0.79Q281.16 0.53 282.13 0.53L282.13 0.53Q282.66 0.53 283.18 0.26L283.18 0.26Q285.03-0.26 288.29-1.85L288.29-1.85Q289.43-2.46 289.43-3.08L289.43-3.08Q289.43-3.52 288.99-4.40L288.99-4.40L285.82-10.56Q279.84-21.82 278.70-24.46L278.70-24.46ZM267.34-34.85Q267.34-41.80 267.26-44.97L267.26-44.97Q267.26-46.46 268.66-46.46L268.66-46.46Q269.90-46.55 272.27-46.55L272.27-46.55Q275.35-46.38 277.99-45.28Q280.63-44.18 280.63-40.30L280.63-40.30Q280.63-37.66 279.05-35.90Q277.46-34.14 275.53-33.35Q273.59-32.56 272.89-32.56L272.89-32.56Q272.18-32.47 271.30-32.47L271.30-32.47Q270.86-32.47 270.34-32.52Q269.81-32.56 268.75-32.56L268.75-32.56Q267.96-32.56 267.65-32.96Q267.34-33.35 267.34-34.14L267.34-34.14L267.34-34.85Z"
					fill="#e18650" fontsize="88" transform="matrix(1,0,0,1,125.048333166662,315.41)"></path>
			</svg>
