<svg width="64" height="64" viewBox="0 0 64 64" xmlns="http://www.w3.org/2000/svg">
	<path
		d="M36.2764 13.9988C36.2413 13.9981 36.2061 13.9988 36.171 14.0011C36.0665 14.0089 35.9638 14.031 35.8656 14.0669L30.2426 16.1105C29.9932 16.2019 29.784 16.3789 29.6524 16.6097C29.5209 16.8407 29.4754 17.1107 29.5239 17.372C29.5723 17.6334 29.7117 17.869 29.9176 18.0375L33.7299 21.118L27.7686 22.8121L24.8353 17.921C24.7115 17.7141 24.5244 17.5524 24.3017 17.4597C24.0789 17.3671 23.8323 17.3487 23.5983 17.4068L19.1071 18.5363C18.8033 18.6116 18.5446 18.8102 18.3934 19.0842C18.242 19.3579 18.2116 19.6826 18.3093 19.98L20.4759 26.4883C17.646 29.0389 16.0003 32.667 16 36.5015C16 43.9079 21.9997 49.936 29.3921 49.9951C29.428 49.9989 29.4639 50.0011 29.4998 50.0016C29.5349 50.0019 29.5701 50.0004 29.6053 49.9971C36.9988 49.9396 42.9999 43.9085 42.9999 36.5015C42.9991 33.2865 41.8345 30.2146 39.7873 27.7959L47.6823 26.359C47.6823 26.359 48.6604 26.2048 49.6752 25.7197C50.1827 25.4768 50.7198 25.1516 51.1781 24.6474C51.6366 24.1431 52 23.4146 52 22.5885V22.2897C52 19.5871 49.7871 17.372 47.0846 17.372C46.9804 17.3746 46.8767 17.3916 46.777 17.4228L42.0354 18.7675L36.9947 14.285C36.7966 14.1077 36.542 14.0068 36.2763 13.9993L36.2764 13.9988ZM35.9974 16.4181L40.9962 20.8521C41.2835 21.1077 41.681 21.1989 42.0509 21.0939L47.1176 19.6568C48.5859 19.6854 49.7501 20.8129 49.7501 22.2893V22.5881C49.7501 22.8113 49.6916 22.9434 49.5171 23.1353C49.3428 23.3271 49.0404 23.5325 48.7042 23.6932C48.0317 24.0149 47.3178 24.1415 47.3178 24.1415H47.3002L37.305 25.9609L31.7304 26.9739L26.4 27.9429L23.5084 28.468L22.8447 26.4771C22.8439 26.4766 22.8432 26.4759 22.8427 26.4751L20.8255 20.4214L23.3414 19.7974L26.29 24.7062C26.4168 24.9182 26.6099 25.0827 26.8395 25.1738C27.069 25.2652 27.3224 25.2785 27.5602 25.2115L36.4374 22.687C36.7014 22.6104 36.9281 22.4401 37.075 22.2081C37.2219 21.9758 37.2789 21.6981 37.2352 21.4269C37.1913 21.1557 37.0499 20.9098 36.8372 20.7358L32.8844 17.5473L35.9974 16.4181ZM37.0609 28.2943C39.0845 30.1633 40.4008 32.6622 40.6886 35.3786H35.046C34.934 33.2401 34.4549 31.0875 33.5541 28.9314L37.0609 28.2943ZM21.2819 28.9115L21.3874 29.2237L21.6797 30.1049L21.682 30.1069C21.6933 30.1413 21.7066 30.1749 21.7214 30.2081C21.7221 30.2096 21.7229 30.2111 21.7236 30.2123C21.7382 30.2455 21.7543 30.2776 21.7719 30.309C21.7726 30.3098 21.7734 30.3105 21.7741 30.3113C21.7917 30.3429 21.8108 30.3738 21.8314 30.4037C21.8319 30.4044 21.8326 30.4052 21.8334 30.4057C21.8547 30.4356 21.8776 30.4639 21.9017 30.4916C21.9022 30.4923 21.9029 30.4931 21.9037 30.4936C21.9288 30.5222 21.9552 30.5493 21.9828 30.5749C22.0089 30.5998 22.036 30.6232 22.0642 30.6453C22.0657 30.646 22.0672 30.6468 22.0687 30.6475C22.0976 30.6694 22.1277 30.69 22.1586 30.709C22.1681 30.7151 22.1777 30.7208 22.1872 30.7266C22.2435 30.7588 22.3022 30.7859 22.363 30.808C22.3969 30.8205 22.4313 30.8316 22.4662 30.8409C22.4845 30.8456 22.5029 30.8502 22.5212 30.8539C22.5395 30.8582 22.5576 30.8617 22.5762 30.865H22.5827C22.6176 30.8703 22.6528 30.874 22.6882 30.876H22.6947C22.7306 30.8778 22.7665 30.8778 22.8024 30.876C22.8519 30.8735 22.9011 30.8675 22.9496 30.8585L24.5823 30.5619L24.8503 30.5134C24.3194 32.1402 24.0108 33.7638 23.9275 35.3783H18.3112C18.5656 32.9535 19.6304 30.7005 21.282 28.9118L21.2819 28.9115ZM31.1916 29.3598C32.1074 31.3978 32.6026 33.398 32.7277 35.3783H26.2348C26.3416 33.618 26.7469 31.8408 27.4784 30.0365L27.5532 30.0212L31.1916 29.3598ZM18.3048 37.6283H23.9562C24.1963 40.995 25.3572 44.3114 27.2896 47.5315C22.4859 46.5795 18.7955 42.585 18.305 37.6283H18.3048ZM26.2654 37.6283H32.7101C32.4655 40.643 31.3618 43.6244 29.4955 46.6302C27.6284 43.6231 26.5178 40.6426 26.2654 37.6283ZM35.0301 37.6283H40.6946C40.2039 42.5855 36.5122 46.5801 31.708 47.5315C33.6379 44.3117 34.7938 40.9949 35.0303 37.6283H35.0301Z"
		fill="#2E2E32" />
</svg>
