<svg width="64" height="64" viewBox="0 0 64 64" fill="none"
								xmlns="http://www.w3.org/2000/svg">
								<path
									d="M49.2031 45.1559L38.8972 22.387C38.7774 22.0275 38.4179 21.7878 38.0584 21.668C37.6988 21.5481 37.2195 21.668 36.9798 22.0275L21.6408 37.3666C21.4011 37.6062 21.2812 38.0856 21.2812 38.4451C21.4011 38.8046 21.6408 39.1641 22.0003 39.2839L44.7692 49.5899C45.2485 49.8296 45.7279 49.9494 46.3271 49.9494C47.4056 49.9494 48.4841 49.3502 49.0833 48.5114C49.6825 47.5527 49.6825 46.3543 49.2031 45.1559ZM32.7856 41.441L41.1741 33.0525L44.4097 40.003L39.8559 44.5568L32.7856 41.441ZM37.3393 25.0234L39.9757 30.8954L30.3888 40.4823L24.5168 37.8459L37.3393 25.0234ZM47.0461 47.1932C46.8064 47.5527 46.3271 47.6725 45.8477 47.4328L42.1328 45.7551L45.3684 42.5195L47.0461 46.2345C47.1659 46.594 47.1659 46.9535 47.0461 47.1932Z"
									fill="#2E2E32" />
								<path
									d="M29.1847 28.3804C29.4244 28.3804 29.5443 28.3804 29.7839 28.2605C30.3831 27.901 30.6228 27.182 30.2633 26.5828C28.8252 23.9464 28.7054 21.1902 30.0236 19.0331C30.9823 17.4753 32.5402 16.3967 33.9782 16.3967C34.6972 16.3967 35.1766 15.9174 35.1766 15.1984C35.1766 14.4793 34.6972 14 33.9782 14C31.5815 14 29.3046 15.438 27.8665 17.8348C26.1888 20.7108 26.1888 24.4258 28.1062 27.7812C28.3459 28.1407 28.7054 28.3804 29.1847 28.3804Z"
									fill="#2E2E32" />
								<path
									d="M15.2903 24.6645C16.8482 24.0654 18.6458 24.0654 20.3235 24.7844C22.2409 25.6232 23.7987 27.0613 24.3979 28.8588C24.6376 29.3382 24.9971 29.5778 25.4764 29.5778C25.5963 29.5778 25.7161 29.5778 25.9558 29.458C26.555 29.2183 26.9145 28.4993 26.6748 27.9001C25.836 25.6232 23.7987 23.586 21.2822 22.6273C19.0053 21.6686 16.4887 21.6686 14.3317 22.5075C13.7325 22.7472 13.4928 23.4662 13.7325 24.0654C13.9721 24.6645 14.6912 24.9042 15.2903 24.6645Z"
									fill="#2E2E32" />
								<path
									d="M23.9156 33.0516C24.5148 33.2913 25.2338 32.9318 25.4735 32.3326C25.7131 31.7334 25.3536 31.0144 24.7545 30.7747C22.7172 30.0557 19.3618 30.2954 16.8452 32.3326C14.4485 34.1302 13.2502 37.0062 13.6097 40.4815C13.6097 41.0807 14.2088 41.56 14.808 41.56H14.9279C15.527 41.4402 16.1262 40.9608 16.0064 40.2418C15.6469 37.0062 17.0849 35.2087 18.2833 34.25C20.0808 32.9318 22.5974 32.5723 23.9156 33.0516Z"
									fill="#2E2E32" />
								<path
									d="M24.3989 17.5979C24.3989 18.9214 23.3257 19.9946 22.0022 19.9946C20.6787 19.9946 19.6055 18.9214 19.6055 17.5979C19.6055 16.2744 20.6787 15.2012 22.0022 15.2012C23.3257 15.2012 24.3989 16.2744 24.3989 17.5979Z"
									fill="#2E2E32" />
								<path
									d="M19.606 28.3792C19.606 29.7027 18.5328 30.7759 17.2092 30.7759C15.8857 30.7759 14.8125 29.7027 14.8125 28.3792C14.8125 27.0556 15.8857 25.9824 17.2092 25.9824C18.5328 25.9824 19.606 27.0556 19.606 28.3792Z"
									fill="#2E2E32" />
							</svg>
