
<svg width="32" height="33" viewBox="0 0 32 33" fill="none" xmlns="http://www.w3.org/2000/svg">
<path fill-rule="evenodd" clip-rule="evenodd" d="M23 15.8994H17V9.89941C17 9.34641 16.552 8.89941 16 8.89941C15.448 8.89941 15 9.34641 15 9.89941V15.8994H9C8.448 15.8994 8 16.3464 8 16.8994C8 17.4524 8.448 17.8994 9 17.8994H15V23.8994C15 24.4524 15.448 24.8994 16 24.8994C16.552 24.8994 17 24.4524 17 23.8994V17.8994H23C23.552 17.8994 24 17.4524 24 16.8994C24 16.3464 23.552 15.8994 23 15.8994Z" fill="#4872F2"/>
<rect x="0.5" y="1.39941" width="31" height="31" rx="5.5" stroke="#4872F2"/>
</svg>
