<svg class="dm-social__svg" viewBox="0 0 66 65" fill="none" xmlns="http://www.w3.org/2000/svg">
      <path d="M33 64C50.397 64 64.5 49.897 64.5 32.5C64.5 15.103 50.397 1 33 1C15.603 1 1.5 15.103 1.5 32.5C1.5 49.897 15.603 64 33 64Z" stroke="#4A4A4A" stroke-width="2"></path>
      <path fill-rule="evenodd" clip-rule="evenodd" d="M32.41 3.25C32.27 15.28 31.49 22.02 27 26.5C22.52 30.98 15.78 31.77 3.75 31.91V33.66C15.78 33.8 22.52 34.58 27 39.07C31.41 43.48 32.24 50.08 32.4 61.76H34.16C34.32 50.08 35.15 43.48 39.56 39.07C43.97 34.66 50.57 33.83 62.25 33.67V31.91C50.57 31.75 43.97 30.92 39.56 26.51C35.08 22.03 34.29 15.29 34.15 3.26H32.4L32.41 3.25Z" fill="#4A4A4A"></path>
    </svg>